G04*
G04 #@! TF.GenerationSoftware,Altium Limited,Altium Designer,22.1.2 (22)*
G04*
G04 Layer_Physical_Order=2*
G04 Layer_Color=16711680*
%FSLAX25Y25*%
%MOIN*%
G70*
G04*
G04 #@! TF.SameCoordinates,52BC5A9B-E7CF-49AA-A5AC-D027EE08C1C4*
G04*
G04*
G04 #@! TF.FilePolarity,Positive*
G04*
G01*
G75*
%ADD12C,0.00600*%
%ADD40C,0.07000*%
%ADD41C,0.06378*%
%ADD42O,0.07874X0.14961*%
%ADD43O,0.12992X0.07087*%
%ADD44C,0.02200*%
%ADD45C,0.02500*%
G36*
X347961Y2039D02*
X170000D01*
Y130000D01*
X2039D01*
Y197961D01*
X347961D01*
Y2039D01*
D02*
G37*
%LPC*%
G36*
X336592Y184000D02*
X336500D01*
Y180000D01*
X340500D01*
Y180092D01*
X340193Y181237D01*
X339601Y182263D01*
X338763Y183101D01*
X337737Y183693D01*
X336592Y184000D01*
D02*
G37*
G36*
X34000Y187957D02*
Y180000D01*
X38480D01*
Y183043D01*
X38310Y184332D01*
X37813Y185533D01*
X37021Y186564D01*
X35990Y187356D01*
X34789Y187853D01*
X34000Y187957D01*
D02*
G37*
G36*
X33000D02*
X32211Y187853D01*
X31010Y187356D01*
X29979Y186564D01*
X29188Y185533D01*
X28690Y184332D01*
X28520Y183043D01*
Y180000D01*
X33000D01*
Y187957D01*
D02*
G37*
G36*
X335500Y184000D02*
X335408D01*
X334263Y183693D01*
X333237Y183101D01*
X332399Y182263D01*
X331807Y181237D01*
X331500Y180092D01*
Y180000D01*
X335500D01*
Y184000D01*
D02*
G37*
G36*
X161092Y182500D02*
X161000D01*
Y178500D01*
X165000D01*
Y178592D01*
X164693Y179737D01*
X164101Y180763D01*
X163263Y181601D01*
X162237Y182193D01*
X161092Y182500D01*
D02*
G37*
G36*
X160000D02*
X159908D01*
X158763Y182193D01*
X157737Y181601D01*
X156899Y180763D01*
X156307Y179737D01*
X156000Y178592D01*
Y178500D01*
X160000D01*
Y182500D01*
D02*
G37*
G36*
X199099Y186189D02*
X197996D01*
X196930Y185904D01*
X195975Y185352D01*
X195195Y184572D01*
X194644Y183617D01*
X194358Y182552D01*
Y181448D01*
X194644Y180383D01*
X195195Y179428D01*
X195975Y178648D01*
X196930Y178096D01*
X197996Y177811D01*
X199099D01*
X200164Y178096D01*
X201119Y178648D01*
X201899Y179428D01*
X202451Y180383D01*
X202736Y181448D01*
Y182552D01*
X202451Y183617D01*
X201899Y184572D01*
X201119Y185352D01*
X200164Y185904D01*
X199099Y186189D01*
D02*
G37*
G36*
X189099D02*
X187996D01*
X186930Y185904D01*
X185975Y185352D01*
X185195Y184572D01*
X184644Y183617D01*
X184358Y182552D01*
Y181448D01*
X184644Y180383D01*
X185195Y179428D01*
X185975Y178648D01*
X186930Y178096D01*
X187996Y177811D01*
X189099D01*
X190164Y178096D01*
X191119Y178648D01*
X191899Y179428D01*
X192451Y180383D01*
X192736Y181448D01*
Y182552D01*
X192451Y183617D01*
X191899Y184572D01*
X191119Y185352D01*
X190164Y185904D01*
X189099Y186189D01*
D02*
G37*
G36*
X340500Y179000D02*
X336500D01*
Y175000D01*
X336592D01*
X337737Y175307D01*
X338763Y175899D01*
X339601Y176737D01*
X340193Y177763D01*
X340500Y178908D01*
Y179000D01*
D02*
G37*
G36*
X335500D02*
X331500D01*
Y178908D01*
X331807Y177763D01*
X332399Y176737D01*
X333237Y175899D01*
X334263Y175307D01*
X335408Y175000D01*
X335500D01*
Y179000D01*
D02*
G37*
G36*
X165000Y177500D02*
X161000D01*
Y173500D01*
X161092D01*
X162237Y173807D01*
X163263Y174399D01*
X164101Y175237D01*
X164693Y176263D01*
X165000Y177408D01*
Y177500D01*
D02*
G37*
G36*
X160000D02*
X156000D01*
Y177408D01*
X156307Y176263D01*
X156899Y175237D01*
X157737Y174399D01*
X158763Y173807D01*
X159908Y173500D01*
X160000D01*
Y177500D01*
D02*
G37*
G36*
X38480Y179000D02*
X34000D01*
Y171043D01*
X34789Y171147D01*
X35990Y171644D01*
X37021Y172436D01*
X37813Y173467D01*
X38310Y174668D01*
X38480Y175957D01*
Y179000D01*
D02*
G37*
G36*
X33000D02*
X28520D01*
Y175957D01*
X28690Y174668D01*
X29188Y173467D01*
X29979Y172436D01*
X31010Y171644D01*
X32211Y171147D01*
X33000Y171043D01*
Y179000D01*
D02*
G37*
G36*
X57122Y188023D02*
X55833Y187853D01*
X54632Y187356D01*
X53601Y186564D01*
X52810Y185533D01*
X52312Y184332D01*
X52142Y183043D01*
Y175957D01*
X52312Y174668D01*
X52810Y173467D01*
X53601Y172436D01*
X54632Y171644D01*
X55833Y171147D01*
X57122Y170977D01*
X58411Y171147D01*
X59612Y171644D01*
X60643Y172436D01*
X61435Y173467D01*
X61932Y174668D01*
X62102Y175957D01*
Y183043D01*
X61932Y184332D01*
X61435Y185533D01*
X60643Y186564D01*
X59612Y187356D01*
X58411Y187853D01*
X57122Y188023D01*
D02*
G37*
G36*
X336592Y174000D02*
X336500D01*
Y170000D01*
X340500D01*
Y170092D01*
X340193Y171237D01*
X339601Y172263D01*
X338763Y173101D01*
X337737Y173693D01*
X336592Y174000D01*
D02*
G37*
G36*
X335500D02*
X335408D01*
X334263Y173693D01*
X333237Y173101D01*
X332399Y172263D01*
X331807Y171237D01*
X331500Y170092D01*
Y170000D01*
X335500D01*
Y174000D01*
D02*
G37*
G36*
X161092Y172500D02*
X161000D01*
Y168500D01*
X165000D01*
Y168592D01*
X164693Y169737D01*
X164101Y170763D01*
X163263Y171601D01*
X162237Y172193D01*
X161092Y172500D01*
D02*
G37*
G36*
X160000D02*
X159908D01*
X158763Y172193D01*
X157737Y171601D01*
X156899Y170763D01*
X156307Y169737D01*
X156000Y168592D01*
Y168500D01*
X160000D01*
Y172500D01*
D02*
G37*
G36*
X340500Y169000D02*
X336500D01*
Y165000D01*
X336592D01*
X337737Y165307D01*
X338763Y165899D01*
X339601Y166737D01*
X340193Y167763D01*
X340500Y168908D01*
Y169000D01*
D02*
G37*
G36*
X335500D02*
X331500D01*
Y168908D01*
X331807Y167763D01*
X332399Y166737D01*
X333237Y165899D01*
X334263Y165307D01*
X335408Y165000D01*
X335500D01*
Y169000D01*
D02*
G37*
G36*
X165000Y167500D02*
X161000D01*
Y163500D01*
X161092D01*
X162237Y163807D01*
X163263Y164399D01*
X164101Y165237D01*
X164693Y166263D01*
X165000Y167408D01*
Y167500D01*
D02*
G37*
G36*
X160000D02*
X156000D01*
Y167408D01*
X156307Y166263D01*
X156899Y165237D01*
X157737Y164399D01*
X158763Y163807D01*
X159908Y163500D01*
X160000D01*
Y167500D01*
D02*
G37*
G36*
X269899Y171298D02*
X269004D01*
X268177Y170956D01*
X267544Y170323D01*
X267202Y169496D01*
Y168600D01*
X267544Y167774D01*
X268177Y167141D01*
X268276Y167100D01*
Y166898D01*
X268377Y166391D01*
X268665Y165961D01*
X269905Y164720D01*
X270335Y164433D01*
X270842Y164332D01*
X271293D01*
X271298Y164327D01*
Y163504D01*
X271641Y162677D01*
X272274Y162044D01*
X273100Y161702D01*
X273996D01*
X274823Y162044D01*
X275455Y162677D01*
X275798Y163504D01*
Y164400D01*
X275455Y165226D01*
X274823Y165859D01*
X273996Y166202D01*
X273173D01*
X272779Y166595D01*
X272350Y166882D01*
X271842Y166983D01*
X271391D01*
X270980Y167394D01*
X271359Y167774D01*
X271702Y168600D01*
Y169496D01*
X271359Y170323D01*
X270726Y170956D01*
X269899Y171298D01*
D02*
G37*
G36*
X50232Y165775D02*
X47780D01*
Y161693D01*
X54749D01*
X54659Y162379D01*
X54201Y163484D01*
X53473Y164433D01*
X52523Y165162D01*
X51418Y165619D01*
X50232Y165775D01*
D02*
G37*
G36*
X46780D02*
X44327D01*
X43141Y165619D01*
X42035Y165162D01*
X41087Y164433D01*
X40358Y163484D01*
X39900Y162379D01*
X39810Y161693D01*
X46780D01*
Y165775D01*
D02*
G37*
G36*
X336592Y164000D02*
X336500D01*
Y160000D01*
X340500D01*
Y160092D01*
X340193Y161237D01*
X339601Y162263D01*
X338763Y163101D01*
X337737Y163693D01*
X336592Y164000D01*
D02*
G37*
G36*
X335500D02*
X335408D01*
X334263Y163693D01*
X333237Y163101D01*
X332399Y162263D01*
X331807Y161237D01*
X331500Y160092D01*
Y160000D01*
X335500D01*
Y164000D01*
D02*
G37*
G36*
X161092Y162500D02*
X161000D01*
Y158500D01*
X165000D01*
Y158592D01*
X164693Y159737D01*
X164101Y160763D01*
X163263Y161601D01*
X162237Y162193D01*
X161092Y162500D01*
D02*
G37*
G36*
X160000D02*
X159908D01*
X158763Y162193D01*
X157737Y161601D01*
X156899Y160763D01*
X156307Y159737D01*
X156000Y158592D01*
Y158500D01*
X160000D01*
Y162500D01*
D02*
G37*
G36*
X54749Y160693D02*
X47780D01*
Y156610D01*
X50232D01*
X51418Y156767D01*
X52523Y157224D01*
X53473Y157953D01*
X54201Y158902D01*
X54659Y160007D01*
X54749Y160693D01*
D02*
G37*
G36*
X46780D02*
X39810D01*
X39900Y160007D01*
X40358Y158902D01*
X41087Y157953D01*
X42035Y157224D01*
X43141Y156767D01*
X44327Y156610D01*
X46780D01*
Y160693D01*
D02*
G37*
G36*
X340500Y159000D02*
X336500D01*
Y155000D01*
X336592D01*
X337737Y155307D01*
X338763Y155899D01*
X339601Y156737D01*
X340193Y157763D01*
X340500Y158908D01*
Y159000D01*
D02*
G37*
G36*
X335500D02*
X331500D01*
Y158908D01*
X331807Y157763D01*
X332399Y156737D01*
X333237Y155899D01*
X334263Y155307D01*
X335408Y155000D01*
X335500D01*
Y159000D01*
D02*
G37*
G36*
X165000Y157500D02*
X161000D01*
Y153500D01*
X161092D01*
X162237Y153807D01*
X163263Y154399D01*
X164101Y155237D01*
X164693Y156263D01*
X165000Y157408D01*
Y157500D01*
D02*
G37*
G36*
X160000D02*
X156000D01*
Y157408D01*
X156307Y156263D01*
X156899Y155237D01*
X157737Y154399D01*
X158763Y153807D01*
X159908Y153500D01*
X160000D01*
Y157500D01*
D02*
G37*
G36*
X336592Y154000D02*
X335408D01*
X334263Y153693D01*
X333237Y153101D01*
X332399Y152263D01*
X331807Y151237D01*
X331500Y150092D01*
Y148908D01*
X331807Y147763D01*
X332399Y146737D01*
X333237Y145899D01*
X334263Y145307D01*
X335408Y145000D01*
X336592D01*
X337737Y145307D01*
X338763Y145899D01*
X339601Y146737D01*
X340193Y147763D01*
X340500Y148908D01*
Y150092D01*
X340193Y151237D01*
X339601Y152263D01*
X338763Y153101D01*
X337737Y153693D01*
X336592Y154000D01*
D02*
G37*
G36*
X161092Y152500D02*
X159908D01*
X158763Y152193D01*
X157737Y151601D01*
X156899Y150763D01*
X156307Y149737D01*
X156000Y148592D01*
Y147408D01*
X156307Y146263D01*
X156899Y145237D01*
X157737Y144399D01*
X158763Y143807D01*
X159908Y143500D01*
X161092D01*
X162237Y143807D01*
X163263Y144399D01*
X164101Y145237D01*
X164693Y146263D01*
X165000Y147408D01*
Y148592D01*
X164693Y149737D01*
X164101Y150763D01*
X163263Y151601D01*
X162237Y152193D01*
X161092Y152500D01*
D02*
G37*
G36*
X35592Y143500D02*
X35500D01*
Y139500D01*
X39500D01*
Y139592D01*
X39193Y140737D01*
X38601Y141763D01*
X37763Y142601D01*
X36737Y143193D01*
X35592Y143500D01*
D02*
G37*
G36*
X15592D02*
X15500D01*
Y139500D01*
X19500D01*
Y139592D01*
X19193Y140737D01*
X18601Y141763D01*
X17763Y142601D01*
X16737Y143193D01*
X15592Y143500D01*
D02*
G37*
G36*
X25592D02*
X25500D01*
Y139500D01*
X29500D01*
Y139592D01*
X29193Y140737D01*
X28601Y141763D01*
X27763Y142601D01*
X26737Y143193D01*
X25592Y143500D01*
D02*
G37*
G36*
X34500D02*
X34408D01*
X33263Y143193D01*
X32237Y142601D01*
X31399Y141763D01*
X30807Y140737D01*
X30500Y139592D01*
Y139500D01*
X34500D01*
Y143500D01*
D02*
G37*
G36*
X14500D02*
X14408D01*
X13263Y143193D01*
X12237Y142601D01*
X11399Y141763D01*
X10807Y140737D01*
X10500Y139592D01*
Y139500D01*
X14500D01*
Y143500D01*
D02*
G37*
G36*
X24500D02*
X24408D01*
X23263Y143193D01*
X22237Y142601D01*
X21399Y141763D01*
X20807Y140737D01*
X20500Y139592D01*
Y139500D01*
X24500D01*
Y143500D01*
D02*
G37*
G36*
X45592D02*
X44408D01*
X43263Y143193D01*
X42237Y142601D01*
X41399Y141763D01*
X40807Y140737D01*
X40500Y139592D01*
Y138408D01*
X40807Y137263D01*
X41399Y136237D01*
X42237Y135399D01*
X43263Y134807D01*
X44408Y134500D01*
X45592D01*
X46737Y134807D01*
X47763Y135399D01*
X48601Y136237D01*
X49193Y137263D01*
X49500Y138408D01*
Y139592D01*
X49193Y140737D01*
X48601Y141763D01*
X47763Y142601D01*
X46737Y143193D01*
X45592Y143500D01*
D02*
G37*
G36*
X39500Y138500D02*
X35500D01*
Y134500D01*
X35592D01*
X36737Y134807D01*
X37763Y135399D01*
X38601Y136237D01*
X39193Y137263D01*
X39500Y138408D01*
Y138500D01*
D02*
G37*
G36*
X34500D02*
X30500D01*
Y138408D01*
X30807Y137263D01*
X31399Y136237D01*
X32237Y135399D01*
X33263Y134807D01*
X34408Y134500D01*
X34500D01*
Y138500D01*
D02*
G37*
G36*
X29500D02*
X25500D01*
Y134500D01*
X25592D01*
X26737Y134807D01*
X27763Y135399D01*
X28601Y136237D01*
X29193Y137263D01*
X29500Y138408D01*
Y138500D01*
D02*
G37*
G36*
X24500D02*
X20500D01*
Y138408D01*
X20807Y137263D01*
X21399Y136237D01*
X22237Y135399D01*
X23263Y134807D01*
X24408Y134500D01*
X24500D01*
Y138500D01*
D02*
G37*
G36*
X19500D02*
X15500D01*
Y134500D01*
X15592D01*
X16737Y134807D01*
X17763Y135399D01*
X18601Y136237D01*
X19193Y137263D01*
X19500Y138408D01*
Y138500D01*
D02*
G37*
G36*
X14500D02*
X10500D01*
Y138408D01*
X10807Y137263D01*
X11399Y136237D01*
X12237Y135399D01*
X13263Y134807D01*
X14408Y134500D01*
X14500D01*
Y138500D01*
D02*
G37*
G36*
X195052Y68689D02*
X193948D01*
X192883Y68404D01*
X191928Y67852D01*
X191148Y67072D01*
X190596Y66117D01*
X190311Y65052D01*
Y63949D01*
X190596Y62883D01*
X191148Y61928D01*
X191928Y61148D01*
X192883Y60597D01*
X193948Y60311D01*
X195052D01*
X196117Y60597D01*
X197072Y61148D01*
X197852Y61928D01*
X198404Y62883D01*
X198689Y63949D01*
Y65052D01*
X198404Y66117D01*
X197852Y67072D01*
X197072Y67852D01*
X196117Y68404D01*
X195052Y68689D01*
D02*
G37*
G36*
Y58689D02*
X193948D01*
X192883Y58403D01*
X191928Y57852D01*
X191148Y57072D01*
X190596Y56117D01*
X190311Y55051D01*
Y53948D01*
X190596Y52883D01*
X191148Y51928D01*
X191928Y51148D01*
X192883Y50596D01*
X193948Y50311D01*
X195052D01*
X196117Y50596D01*
X197072Y51148D01*
X197852Y51928D01*
X198404Y52883D01*
X198689Y53948D01*
Y55051D01*
X198404Y56117D01*
X197852Y57072D01*
X197072Y57852D01*
X196117Y58403D01*
X195052Y58689D01*
D02*
G37*
G36*
X335592Y21500D02*
X335500D01*
Y17500D01*
X339500D01*
Y17592D01*
X339193Y18737D01*
X338601Y19763D01*
X337763Y20601D01*
X336737Y21193D01*
X335592Y21500D01*
D02*
G37*
G36*
X334500D02*
X334408D01*
X333263Y21193D01*
X332237Y20601D01*
X331399Y19763D01*
X330807Y18737D01*
X330500Y17592D01*
Y17500D01*
X334500D01*
Y21500D01*
D02*
G37*
G36*
X325592D02*
X325500D01*
Y17500D01*
X329500D01*
Y17592D01*
X329193Y18737D01*
X328601Y19763D01*
X327763Y20601D01*
X326737Y21193D01*
X325592Y21500D01*
D02*
G37*
G36*
X324500D02*
X324408D01*
X323263Y21193D01*
X322237Y20601D01*
X321399Y19763D01*
X320807Y18737D01*
X320500Y17592D01*
Y17500D01*
X324500D01*
Y21500D01*
D02*
G37*
G36*
X315592D02*
X315500D01*
Y17500D01*
X319500D01*
Y17592D01*
X319193Y18737D01*
X318601Y19763D01*
X317763Y20601D01*
X316737Y21193D01*
X315592Y21500D01*
D02*
G37*
G36*
X314500D02*
X314408D01*
X313263Y21193D01*
X312237Y20601D01*
X311399Y19763D01*
X310807Y18737D01*
X310500Y17592D01*
Y17500D01*
X314500D01*
Y21500D01*
D02*
G37*
G36*
X280592D02*
X280500D01*
Y17500D01*
X284500D01*
Y17592D01*
X284193Y18737D01*
X283601Y19763D01*
X282763Y20601D01*
X281737Y21193D01*
X280592Y21500D01*
D02*
G37*
G36*
X279500D02*
X279408D01*
X278263Y21193D01*
X277237Y20601D01*
X276399Y19763D01*
X275807Y18737D01*
X275500Y17592D01*
Y17500D01*
X279500D01*
Y21500D01*
D02*
G37*
G36*
X270592D02*
X270500D01*
Y17500D01*
X274500D01*
Y17592D01*
X274193Y18737D01*
X273601Y19763D01*
X272763Y20601D01*
X271737Y21193D01*
X270592Y21500D01*
D02*
G37*
G36*
X269500D02*
X269408D01*
X268263Y21193D01*
X267237Y20601D01*
X266399Y19763D01*
X265807Y18737D01*
X265500Y17592D01*
Y17500D01*
X269500D01*
Y21500D01*
D02*
G37*
G36*
X260592D02*
X260500D01*
Y17500D01*
X264500D01*
Y17592D01*
X264193Y18737D01*
X263601Y19763D01*
X262763Y20601D01*
X261737Y21193D01*
X260592Y21500D01*
D02*
G37*
G36*
X259500D02*
X259408D01*
X258263Y21193D01*
X257237Y20601D01*
X256399Y19763D01*
X255807Y18737D01*
X255500Y17592D01*
Y17500D01*
X259500D01*
Y21500D01*
D02*
G37*
G36*
X225092D02*
X225000D01*
Y17500D01*
X229000D01*
Y17592D01*
X228693Y18737D01*
X228101Y19763D01*
X227263Y20601D01*
X226237Y21193D01*
X225092Y21500D01*
D02*
G37*
G36*
X224000D02*
X223908D01*
X222763Y21193D01*
X221737Y20601D01*
X220899Y19763D01*
X220307Y18737D01*
X220000Y17592D01*
Y17500D01*
X224000D01*
Y21500D01*
D02*
G37*
G36*
X215092D02*
X215000D01*
Y17500D01*
X219000D01*
Y17592D01*
X218693Y18737D01*
X218101Y19763D01*
X217263Y20601D01*
X216237Y21193D01*
X215092Y21500D01*
D02*
G37*
G36*
X214000D02*
X213908D01*
X212763Y21193D01*
X211737Y20601D01*
X210899Y19763D01*
X210307Y18737D01*
X210000Y17592D01*
Y17500D01*
X214000D01*
Y21500D01*
D02*
G37*
G36*
X205092D02*
X205000D01*
Y17500D01*
X209000D01*
Y17592D01*
X208693Y18737D01*
X208101Y19763D01*
X207263Y20601D01*
X206237Y21193D01*
X205092Y21500D01*
D02*
G37*
G36*
X204000D02*
X203908D01*
X202763Y21193D01*
X201737Y20601D01*
X200899Y19763D01*
X200307Y18737D01*
X200000Y17592D01*
Y17500D01*
X204000D01*
Y21500D01*
D02*
G37*
G36*
X339500Y16500D02*
X335500D01*
Y12500D01*
X335592D01*
X336737Y12807D01*
X337763Y13399D01*
X338601Y14237D01*
X339193Y15263D01*
X339500Y16408D01*
Y16500D01*
D02*
G37*
G36*
X334500D02*
X330500D01*
Y16408D01*
X330807Y15263D01*
X331399Y14237D01*
X332237Y13399D01*
X333263Y12807D01*
X334408Y12500D01*
X334500D01*
Y16500D01*
D02*
G37*
G36*
X329500D02*
X325500D01*
Y12500D01*
X325592D01*
X326737Y12807D01*
X327763Y13399D01*
X328601Y14237D01*
X329193Y15263D01*
X329500Y16408D01*
Y16500D01*
D02*
G37*
G36*
X324500D02*
X320500D01*
Y16408D01*
X320807Y15263D01*
X321399Y14237D01*
X322237Y13399D01*
X323263Y12807D01*
X324408Y12500D01*
X324500D01*
Y16500D01*
D02*
G37*
G36*
X319500D02*
X315500D01*
Y12500D01*
X315592D01*
X316737Y12807D01*
X317763Y13399D01*
X318601Y14237D01*
X319193Y15263D01*
X319500Y16408D01*
Y16500D01*
D02*
G37*
G36*
X314500D02*
X310500D01*
Y16408D01*
X310807Y15263D01*
X311399Y14237D01*
X312237Y13399D01*
X313263Y12807D01*
X314408Y12500D01*
X314500D01*
Y16500D01*
D02*
G37*
G36*
X305592Y21500D02*
X304408D01*
X303263Y21193D01*
X302237Y20601D01*
X301399Y19763D01*
X300807Y18737D01*
X300500Y17592D01*
Y16408D01*
X300807Y15263D01*
X301399Y14237D01*
X302237Y13399D01*
X303263Y12807D01*
X304408Y12500D01*
X305592D01*
X306737Y12807D01*
X307763Y13399D01*
X308601Y14237D01*
X309193Y15263D01*
X309500Y16408D01*
Y17592D01*
X309193Y18737D01*
X308601Y19763D01*
X307763Y20601D01*
X306737Y21193D01*
X305592Y21500D01*
D02*
G37*
G36*
X284500Y16500D02*
X280500D01*
Y12500D01*
X280592D01*
X281737Y12807D01*
X282763Y13399D01*
X283601Y14237D01*
X284193Y15263D01*
X284500Y16408D01*
Y16500D01*
D02*
G37*
G36*
X279500D02*
X275500D01*
Y16408D01*
X275807Y15263D01*
X276399Y14237D01*
X277237Y13399D01*
X278263Y12807D01*
X279408Y12500D01*
X279500D01*
Y16500D01*
D02*
G37*
G36*
X274500D02*
X270500D01*
Y12500D01*
X270592D01*
X271737Y12807D01*
X272763Y13399D01*
X273601Y14237D01*
X274193Y15263D01*
X274500Y16408D01*
Y16500D01*
D02*
G37*
G36*
X269500D02*
X265500D01*
Y16408D01*
X265807Y15263D01*
X266399Y14237D01*
X267237Y13399D01*
X268263Y12807D01*
X269408Y12500D01*
X269500D01*
Y16500D01*
D02*
G37*
G36*
X264500D02*
X260500D01*
Y12500D01*
X260592D01*
X261737Y12807D01*
X262763Y13399D01*
X263601Y14237D01*
X264193Y15263D01*
X264500Y16408D01*
Y16500D01*
D02*
G37*
G36*
X259500D02*
X255500D01*
Y16408D01*
X255807Y15263D01*
X256399Y14237D01*
X257237Y13399D01*
X258263Y12807D01*
X259408Y12500D01*
X259500D01*
Y16500D01*
D02*
G37*
G36*
X250592Y21500D02*
X249408D01*
X248263Y21193D01*
X247237Y20601D01*
X246399Y19763D01*
X245807Y18737D01*
X245500Y17592D01*
Y16408D01*
X245807Y15263D01*
X246399Y14237D01*
X247237Y13399D01*
X248263Y12807D01*
X249408Y12500D01*
X250592D01*
X251737Y12807D01*
X252763Y13399D01*
X253601Y14237D01*
X254193Y15263D01*
X254500Y16408D01*
Y17592D01*
X254193Y18737D01*
X253601Y19763D01*
X252763Y20601D01*
X251737Y21193D01*
X250592Y21500D01*
D02*
G37*
G36*
X229000Y16500D02*
X225000D01*
Y12500D01*
X225092D01*
X226237Y12807D01*
X227263Y13399D01*
X228101Y14237D01*
X228693Y15263D01*
X229000Y16408D01*
Y16500D01*
D02*
G37*
G36*
X224000D02*
X220000D01*
Y16408D01*
X220307Y15263D01*
X220899Y14237D01*
X221737Y13399D01*
X222763Y12807D01*
X223908Y12500D01*
X224000D01*
Y16500D01*
D02*
G37*
G36*
X219000D02*
X215000D01*
Y12500D01*
X215092D01*
X216237Y12807D01*
X217263Y13399D01*
X218101Y14237D01*
X218693Y15263D01*
X219000Y16408D01*
Y16500D01*
D02*
G37*
G36*
X214000D02*
X210000D01*
Y16408D01*
X210307Y15263D01*
X210899Y14237D01*
X211737Y13399D01*
X212763Y12807D01*
X213908Y12500D01*
X214000D01*
Y16500D01*
D02*
G37*
G36*
X209000D02*
X205000D01*
Y12500D01*
X205092D01*
X206237Y12807D01*
X207263Y13399D01*
X208101Y14237D01*
X208693Y15263D01*
X209000Y16408D01*
Y16500D01*
D02*
G37*
G36*
X204000D02*
X200000D01*
Y16408D01*
X200307Y15263D01*
X200899Y14237D01*
X201737Y13399D01*
X202763Y12807D01*
X203908Y12500D01*
X204000D01*
Y16500D01*
D02*
G37*
G36*
X195092Y21500D02*
X193908D01*
X192763Y21193D01*
X191737Y20601D01*
X190899Y19763D01*
X190307Y18737D01*
X190000Y17592D01*
Y16408D01*
X190307Y15263D01*
X190899Y14237D01*
X191737Y13399D01*
X192763Y12807D01*
X193908Y12500D01*
X195092D01*
X196237Y12807D01*
X197263Y13399D01*
X198101Y14237D01*
X198693Y15263D01*
X199000Y16408D01*
Y17592D01*
X198693Y18737D01*
X198101Y19763D01*
X197263Y20601D01*
X196237Y21193D01*
X195092Y21500D01*
D02*
G37*
%LPD*%
D12*
X269602Y166898D02*
X270842Y165658D01*
X269602Y166898D02*
Y168898D01*
X269452Y169048D02*
X269602Y168898D01*
X270842Y165658D02*
X271842D01*
X273548Y163952D01*
D40*
X82500Y17000D02*
D03*
X72500D02*
D03*
X102500D02*
D03*
X92500D02*
D03*
X136500D02*
D03*
X126500D02*
D03*
X156500D02*
D03*
X146500D02*
D03*
X26500D02*
D03*
X16500D02*
D03*
X46500D02*
D03*
X36500D02*
D03*
X35000Y139000D02*
D03*
X45000D02*
D03*
X15000D02*
D03*
X25000D02*
D03*
X160500Y168000D02*
D03*
Y178000D02*
D03*
Y148000D02*
D03*
Y158000D02*
D03*
X315000Y17000D02*
D03*
X305000D02*
D03*
X335000D02*
D03*
X325000D02*
D03*
X260000D02*
D03*
X250000D02*
D03*
X280000D02*
D03*
X270000D02*
D03*
X204500D02*
D03*
X194500D02*
D03*
X224500D02*
D03*
X214500D02*
D03*
X336000Y169500D02*
D03*
Y179500D02*
D03*
Y149500D02*
D03*
Y159500D02*
D03*
D41*
X16500Y54500D02*
D03*
Y64500D02*
D03*
X188547Y182000D02*
D03*
X198547D02*
D03*
X194500Y54500D02*
D03*
Y64500D02*
D03*
D42*
X57122Y179500D02*
D03*
X33500D02*
D03*
D43*
X47280Y161193D02*
D03*
D44*
X314000Y46000D02*
D03*
Y56000D02*
D03*
Y66500D02*
D03*
X173500Y75500D02*
D03*
X176000Y144500D02*
D03*
X88000Y195500D02*
D03*
X276000Y72000D02*
D03*
X299000Y145000D02*
D03*
X293000Y159000D02*
D03*
X70000Y165000D02*
D03*
X113500Y157500D02*
D03*
X214000Y41000D02*
D03*
Y61000D02*
D03*
X234469Y143000D02*
D03*
X164000Y132000D02*
D03*
D45*
X269452Y169048D02*
D03*
X273548Y163952D02*
D03*
M02*
