G04*
G04 #@! TF.GenerationSoftware,Altium Limited,Altium Designer,22.1.2 (22)*
G04*
G04 Layer_Color=65535*
%FSLAX25Y25*%
%MOIN*%
G70*
G04*
G04 #@! TF.SameCoordinates,52BC5A9B-E7CF-49AA-A5AC-D027EE08C1C4*
G04*
G04*
G04 #@! TF.FilePolarity,Positive*
G04*
G01*
G75*
%ADD10C,0.02000*%
%ADD11C,0.01575*%
%ADD12C,0.00600*%
%ADD13C,0.01500*%
%ADD14C,0.01181*%
%ADD15C,0.01000*%
%ADD16C,0.00787*%
%ADD17C,0.00500*%
%ADD18C,0.00787*%
%ADD19C,0.00900*%
D10*
X17155Y75911D02*
G03*
X17155Y75911I-500J0D01*
G01*
X177637Y182156D02*
G03*
X177637Y182156I-500J0D01*
G01*
X195156Y75911D02*
G03*
X195156Y75911I-500J0D01*
G01*
X282720Y155000D02*
G03*
X282720Y155000I-492J0D01*
G01*
D11*
X68110Y179400D02*
G03*
X68110Y179400I-787J0D01*
G01*
D12*
X117207Y160394D02*
G03*
X117207Y160394I-707J0D01*
G01*
X190500Y163300D02*
X198400D01*
X190600Y156700D02*
X198500D01*
X85100Y43200D02*
X93000D01*
X85000Y49800D02*
X92900D01*
X85100Y53200D02*
X93000D01*
X85000Y59800D02*
X92900D01*
X85100Y63200D02*
X93000D01*
X85000Y69800D02*
X92900D01*
X131300Y43800D02*
X138300D01*
X131300Y49200D02*
X138300D01*
X131300Y53800D02*
X138300D01*
X131300Y59200D02*
X138300D01*
X73760Y185300D02*
X84760D01*
X73760Y193700D02*
X84760D01*
X73500Y169200D02*
X84500D01*
X73500Y160800D02*
X84500D01*
X74600Y174200D02*
X82500D01*
X74500Y180800D02*
X82400D01*
X144200Y162700D02*
Y177300D01*
X117800D02*
X144200D01*
X117800Y162700D02*
Y177300D01*
Y162700D02*
X144200D01*
X263053Y57700D02*
X270953D01*
X262953Y64300D02*
X270853D01*
X263053Y37700D02*
X270953D01*
X262953Y44300D02*
X270853D01*
X263147Y47700D02*
X271047D01*
X263047Y54300D02*
X270947D01*
X308300Y38300D02*
X315300D01*
X308300Y43700D02*
X315300D01*
X308300Y48300D02*
X315300D01*
X308300Y53700D02*
X315300D01*
X308300Y58300D02*
X315300D01*
X308300Y63700D02*
X315300D01*
X262000Y76200D02*
X273000D01*
X262000Y67800D02*
X273000D01*
X295300Y69800D02*
X302300D01*
X295300Y75200D02*
X302300D01*
X221000Y178300D02*
X232000D01*
X221000Y186700D02*
X232000D01*
X221768Y140300D02*
X228768D01*
X221768Y145700D02*
X228768D01*
X221000Y159300D02*
X232000D01*
X221000Y167700D02*
X232000D01*
X304000Y149700D02*
X315000D01*
X304000Y141300D02*
X315000D01*
X304600Y161200D02*
X312500D01*
X304500Y167800D02*
X312400D01*
X304000Y178800D02*
X315000D01*
X304000Y187200D02*
X315000D01*
X131300Y63800D02*
X138300D01*
X131300Y69200D02*
X138300D01*
X85268Y73800D02*
X92269D01*
X85268Y79200D02*
X92269D01*
X120000Y150200D02*
X131000D01*
X120000Y141800D02*
X131000D01*
X168200Y118250D02*
Y129250D01*
X159800Y118250D02*
Y129250D01*
X181260Y148700D02*
X192260D01*
X181260Y140300D02*
X192260D01*
X334301Y118499D02*
Y116100D01*
X336101D01*
X335501Y117300D01*
Y117899D01*
X336101Y118499D01*
X337300D01*
X337900Y117899D01*
Y116700D01*
X337300Y116100D01*
X334301Y122098D02*
Y119699D01*
X336101D01*
X335501Y120898D01*
Y121498D01*
X336101Y122098D01*
X337300D01*
X337900Y121498D01*
Y120299D01*
X337300Y119699D01*
X334301Y125697D02*
Y123298D01*
X336101D01*
X335501Y124497D01*
Y125097D01*
X336101Y125697D01*
X337300D01*
X337900Y125097D01*
Y123898D01*
X337300Y123298D01*
X336101Y126897D02*
Y129296D01*
X334301Y132295D02*
Y131095D01*
X334901Y130495D01*
X337300D01*
X337900Y131095D01*
Y132295D01*
X337300Y132895D01*
X334901D01*
X334301Y132295D01*
Y134094D02*
X337300D01*
X337900Y134694D01*
Y135894D01*
X337300Y136493D01*
X334301D01*
Y137693D02*
Y140092D01*
Y138893D01*
X337900D01*
X155600Y138599D02*
X156200Y139199D01*
X157399D01*
X157999Y138599D01*
Y137999D01*
X157399Y137399D01*
X156800D01*
X157399D01*
X157999Y136800D01*
Y136200D01*
X157399Y135600D01*
X156200D01*
X155600Y136200D01*
X159199Y139199D02*
Y136800D01*
X160398Y135600D01*
X161598Y136800D01*
Y139199D01*
X162798Y138599D02*
X163398Y139199D01*
X164597D01*
X165197Y138599D01*
Y137999D01*
X164597Y137399D01*
X163997D01*
X164597D01*
X165197Y136800D01*
Y136200D01*
X164597Y135600D01*
X163398D01*
X162798Y136200D01*
X58499Y144199D02*
X56100D01*
Y142399D01*
X57300Y142999D01*
X57899D01*
X58499Y142399D01*
Y141200D01*
X57899Y140600D01*
X56700D01*
X56100Y141200D01*
X59699Y144199D02*
Y141800D01*
X60899Y140600D01*
X62098Y141800D01*
Y144199D01*
X300100Y29899D02*
Y26300D01*
Y28099D01*
X302499D01*
Y29899D01*
Y26300D01*
X305498D02*
X304299D01*
X303699Y26899D01*
Y28099D01*
X304299Y28699D01*
X305498D01*
X306098Y28099D01*
Y27499D01*
X303699D01*
X307298Y28699D02*
X309697Y26300D01*
X308497Y27499D01*
X309697Y28699D01*
X307298Y26300D01*
X310896Y28099D02*
X313296D01*
X316295Y29899D02*
X315095D01*
X314495Y29299D01*
Y26899D01*
X315095Y26300D01*
X316295D01*
X316895Y26899D01*
Y29299D01*
X316295Y29899D01*
X318094D02*
Y26899D01*
X318694Y26300D01*
X319894D01*
X320493Y26899D01*
Y29899D01*
X321693D02*
X324092D01*
X322893D01*
Y26300D01*
X325292Y28099D02*
X327691D01*
X330090Y25100D02*
X330690D01*
X331290Y25700D01*
Y28699D01*
X329490D01*
X328891Y28099D01*
Y26899D01*
X329490Y26300D01*
X331290D01*
X333089D02*
X334289D01*
X334889Y26899D01*
Y28099D01*
X334289Y28699D01*
X333089D01*
X332490Y28099D01*
Y26899D01*
X333089Y26300D01*
X336688D02*
X337888D01*
X338488Y26899D01*
Y28099D01*
X337888Y28699D01*
X336688D01*
X336088Y28099D01*
Y26899D01*
X336688Y26300D01*
X342087Y29899D02*
Y26300D01*
X340287D01*
X339687Y26899D01*
Y28099D01*
X340287Y28699D01*
X342087D01*
X251999Y26399D02*
Y28799D01*
X251399Y29399D01*
X250200D01*
X249600Y28799D01*
Y26399D01*
X250200Y25800D01*
X251399D01*
X250800Y26999D02*
X251999Y25800D01*
X251399D02*
X251999Y26399D01*
X253199Y27599D02*
X255598D01*
X256798Y29399D02*
Y25800D01*
Y27599D01*
X259197D01*
Y29399D01*
Y25800D01*
X260397Y29399D02*
X261596D01*
X260996D01*
Y25800D01*
X260397D01*
X261596D01*
X263396Y27599D02*
X265795D01*
X268194Y24600D02*
X268794D01*
X269394Y25200D01*
Y28199D01*
X267594D01*
X266994Y27599D01*
Y26399D01*
X267594Y25800D01*
X269394D01*
X271193D02*
X272393D01*
X272992Y26399D01*
Y27599D01*
X272393Y28199D01*
X271193D01*
X270593Y27599D01*
Y26399D01*
X271193Y25800D01*
X274792D02*
X275992D01*
X276591Y26399D01*
Y27599D01*
X275992Y28199D01*
X274792D01*
X274192Y27599D01*
Y26399D01*
X274792Y25800D01*
X280190Y29399D02*
Y25800D01*
X278391D01*
X277791Y26399D01*
Y27599D01*
X278391Y28199D01*
X280190D01*
X195499Y26399D02*
Y28799D01*
X194899Y29399D01*
X193700D01*
X193100Y28799D01*
Y26399D01*
X193700Y25800D01*
X194899D01*
X194300Y26999D02*
X195499Y25800D01*
X194899D02*
X195499Y26399D01*
X196699Y27599D02*
X199098D01*
X200298Y29399D02*
Y25800D01*
X202697D01*
X205696Y29399D02*
X204496D01*
X203896Y28799D01*
Y26399D01*
X204496Y25800D01*
X205696D01*
X206296Y26399D01*
Y28799D01*
X205696Y29399D01*
X207495Y27599D02*
X209895D01*
X212294Y24600D02*
X212894D01*
X213493Y25200D01*
Y28199D01*
X211694D01*
X211094Y27599D01*
Y26399D01*
X211694Y25800D01*
X213493D01*
X215293D02*
X216493D01*
X217092Y26399D01*
Y27599D01*
X216493Y28199D01*
X215293D01*
X214693Y27599D01*
Y26399D01*
X215293Y25800D01*
X218892D02*
X220091D01*
X220691Y26399D01*
Y27599D01*
X220091Y28199D01*
X218892D01*
X218292Y27599D01*
Y26399D01*
X218892Y25800D01*
X224290Y29399D02*
Y25800D01*
X222491D01*
X221891Y26399D01*
Y27599D01*
X222491Y28199D01*
X224290D01*
X123600Y29199D02*
Y25600D01*
Y27399D01*
X125999D01*
Y29199D01*
Y25600D01*
X128998D02*
X127799D01*
X127199Y26200D01*
Y27399D01*
X127799Y27999D01*
X128998D01*
X129598Y27399D01*
Y26800D01*
X127199D01*
X130798Y27999D02*
X133197Y25600D01*
X131997Y26800D01*
X133197Y27999D01*
X130798Y25600D01*
X134397Y27399D02*
X136796D01*
X139795Y29199D02*
X138595D01*
X137995Y28599D01*
Y26200D01*
X138595Y25600D01*
X139795D01*
X140395Y26200D01*
Y28599D01*
X139795Y29199D01*
X141594D02*
Y26200D01*
X142194Y25600D01*
X143394D01*
X143993Y26200D01*
Y29199D01*
X145193D02*
X147592D01*
X146393D01*
Y25600D01*
X148792Y27399D02*
X151191D01*
X152391Y29199D02*
Y25600D01*
X154190D01*
X154790Y26200D01*
Y26800D01*
Y27399D01*
X154190Y27999D01*
X152391D01*
X156589D02*
X157789D01*
X158389Y27399D01*
Y25600D01*
X156589D01*
X155990Y26200D01*
X156589Y26800D01*
X158389D01*
X161988Y29199D02*
Y25600D01*
X160188D01*
X159588Y26200D01*
Y27399D01*
X160188Y27999D01*
X161988D01*
X75999Y26700D02*
Y29099D01*
X75399Y29699D01*
X74200D01*
X73600Y29099D01*
Y26700D01*
X74200Y26100D01*
X75399D01*
X74800Y27300D02*
X75999Y26100D01*
X75399D02*
X75999Y26700D01*
X77199Y27899D02*
X79598D01*
X80798Y29699D02*
Y26100D01*
Y27899D01*
X83197D01*
Y29699D01*
Y26100D01*
X84396Y29699D02*
X85596D01*
X84996D01*
Y26100D01*
X84396D01*
X85596D01*
X87396Y27899D02*
X89795D01*
X90994Y29699D02*
Y26100D01*
X92794D01*
X93394Y26700D01*
Y27300D01*
Y27899D01*
X92794Y28499D01*
X90994D01*
X95193D02*
X96393D01*
X96992Y27899D01*
Y26100D01*
X95193D01*
X94593Y26700D01*
X95193Y27300D01*
X96992D01*
X100591Y29699D02*
Y26100D01*
X98792D01*
X98192Y26700D01*
Y27899D01*
X98792Y28499D01*
X100591D01*
X19499Y26700D02*
Y29099D01*
X18899Y29699D01*
X17700D01*
X17100Y29099D01*
Y26700D01*
X17700Y26100D01*
X18899D01*
X18300Y27300D02*
X19499Y26100D01*
X18899D02*
X19499Y26700D01*
X20699Y27899D02*
X23098D01*
X24298Y29699D02*
Y26100D01*
X26697D01*
X29696Y29699D02*
X28496D01*
X27896Y29099D01*
Y26700D01*
X28496Y26100D01*
X29696D01*
X30296Y26700D01*
Y29099D01*
X29696Y29699D01*
X31495Y27899D02*
X33895D01*
X35094Y29699D02*
Y26100D01*
X36894D01*
X37493Y26700D01*
Y27300D01*
Y27899D01*
X36894Y28499D01*
X35094D01*
X39293D02*
X40492D01*
X41092Y27899D01*
Y26100D01*
X39293D01*
X38693Y26700D01*
X39293Y27300D01*
X41092D01*
X44691Y29699D02*
Y26100D01*
X42892D01*
X42292Y26700D01*
Y27899D01*
X42892Y28499D01*
X44691D01*
X195100Y193599D02*
X195700Y194199D01*
X196899D01*
X197499Y193599D01*
Y192999D01*
X196899Y192399D01*
X196300D01*
X196899D01*
X197499Y191800D01*
Y191200D01*
X196899Y190600D01*
X195700D01*
X195100Y191200D01*
X198699Y194199D02*
Y191800D01*
X199899Y190600D01*
X201098Y191800D01*
Y194199D01*
X202298Y193599D02*
X202898Y194199D01*
X204097D01*
X204697Y193599D01*
Y192999D01*
X204097Y192399D01*
X203497D01*
X204097D01*
X204697Y191800D01*
Y191200D01*
X204097Y190600D01*
X202898D01*
X202298Y191200D01*
X180701Y52999D02*
X180102Y52399D01*
Y51200D01*
X180701Y50600D01*
X183101D01*
X183700Y51200D01*
Y52399D01*
X183101Y52999D01*
X181901D01*
Y51800D01*
X183700Y54799D02*
Y55998D01*
X183101Y56598D01*
X181901D01*
X181301Y55998D01*
Y54799D01*
X181901Y54199D01*
X183101D01*
X183700Y54799D01*
Y58398D02*
Y59597D01*
X183101Y60197D01*
X181901D01*
X181301Y59597D01*
Y58398D01*
X181901Y57798D01*
X183101D01*
X183700Y58398D01*
X180102Y63796D02*
X183700D01*
Y61996D01*
X183101Y61396D01*
X181901D01*
X181301Y61996D01*
Y63796D01*
X180102Y68594D02*
X183700D01*
Y70993D01*
X181301Y72793D02*
Y73993D01*
X181901Y74592D01*
X183700D01*
Y72793D01*
X183101Y72193D01*
X182501Y72793D01*
Y74592D01*
X181301Y75792D02*
X183101D01*
X183700Y76392D01*
Y78191D01*
X184300D01*
X184900Y77591D01*
Y76991D01*
X183700Y78191D02*
X181301D01*
X183700Y79991D02*
Y81190D01*
X183101Y81790D01*
X181901D01*
X181301Y81190D01*
Y79991D01*
X181901Y79391D01*
X183101D01*
X183700Y79991D01*
X181301Y82990D02*
X183101D01*
X183700Y83589D01*
Y85389D01*
X181301D01*
X180701Y87188D02*
X181301D01*
Y86588D01*
Y87788D01*
Y87188D01*
X183101D01*
X183700Y87788D01*
X4602Y51100D02*
X8200D01*
Y52899D01*
X7601Y53499D01*
X7001D01*
X6401Y52899D01*
Y51100D01*
Y52899D01*
X5801Y53499D01*
X5201D01*
X4602Y52899D01*
Y51100D01*
X5801Y55299D02*
Y56498D01*
X6401Y57098D01*
X8200D01*
Y55299D01*
X7601Y54699D01*
X7001Y55299D01*
Y57098D01*
X4602Y60697D02*
X8200D01*
Y58898D01*
X7601Y58298D01*
X6401D01*
X5801Y58898D01*
Y60697D01*
X4602Y65495D02*
X8200D01*
Y67895D01*
X5801Y69694D02*
Y70894D01*
X6401Y71493D01*
X8200D01*
Y69694D01*
X7601Y69094D01*
X7001Y69694D01*
Y71493D01*
X5801Y72693D02*
X7601D01*
X8200Y73293D01*
Y75092D01*
X8800D01*
X9400Y74493D01*
Y73893D01*
X8200Y75092D02*
X5801D01*
X8200Y76892D02*
Y78091D01*
X7601Y78691D01*
X6401D01*
X5801Y78091D01*
Y76892D01*
X6401Y76292D01*
X7601D01*
X8200Y76892D01*
X5801Y79891D02*
X7601D01*
X8200Y80490D01*
Y82290D01*
X5801D01*
X5201Y84089D02*
X5801D01*
Y83490D01*
Y84689D01*
Y84089D01*
X7601D01*
X8200Y84689D01*
X231001Y36299D02*
Y33300D01*
X231601Y32701D01*
X232800D01*
X233400Y33300D01*
Y36299D01*
X234600Y35700D02*
X235200Y36299D01*
X236399D01*
X236999Y35700D01*
Y35100D01*
X236399Y34500D01*
X235799D01*
X236399D01*
X236999Y33900D01*
Y33300D01*
X236399Y32701D01*
X235200D01*
X234600Y33300D01*
X50001Y40799D02*
Y37800D01*
X50601Y37201D01*
X51800D01*
X52400Y37800D01*
Y40799D01*
X55999Y37201D02*
X53600D01*
X55999Y39600D01*
Y40200D01*
X55399Y40799D01*
X54200D01*
X53600Y40200D01*
X252100Y183999D02*
Y181000D01*
X252700Y180400D01*
X253899D01*
X254499Y181000D01*
Y183999D01*
X255699Y180400D02*
X256898D01*
X256299D01*
Y183999D01*
X255699Y183399D01*
X298702Y7799D02*
X301101D01*
X299901D01*
Y4201D01*
X302300D02*
Y7799D01*
X304100D01*
X304700Y7200D01*
Y6000D01*
X304100Y5400D01*
X302300D01*
X305899Y4800D02*
X306499Y4201D01*
X307699D01*
X308298Y4800D01*
Y7200D01*
X307699Y7799D01*
X306499D01*
X305899Y7200D01*
Y6600D01*
X306499Y6000D01*
X308298D01*
X243702Y8299D02*
X246101D01*
X244901D01*
Y4701D01*
X247300D02*
Y8299D01*
X249100D01*
X249700Y7700D01*
Y6500D01*
X249100Y5900D01*
X247300D01*
X250899Y7700D02*
X251499Y8299D01*
X252699D01*
X253298Y7700D01*
Y7100D01*
X252699Y6500D01*
X253298Y5900D01*
Y5300D01*
X252699Y4701D01*
X251499D01*
X250899Y5300D01*
Y5900D01*
X251499Y6500D01*
X250899Y7100D01*
Y7700D01*
X251499Y6500D02*
X252699D01*
X188201Y8299D02*
X190601D01*
X189401D01*
Y4701D01*
X191800D02*
Y8299D01*
X193600D01*
X194200Y7700D01*
Y6500D01*
X193600Y5900D01*
X191800D01*
X195399Y8299D02*
X197799D01*
Y7700D01*
X195399Y5300D01*
Y4701D01*
X120202Y7799D02*
X122601D01*
X121401D01*
Y4201D01*
X123800D02*
Y7799D01*
X125600D01*
X126200Y7200D01*
Y6000D01*
X125600Y5400D01*
X123800D01*
X129798Y7799D02*
X128599Y7200D01*
X127399Y6000D01*
Y4800D01*
X127999Y4201D01*
X129199D01*
X129798Y4800D01*
Y5400D01*
X129199Y6000D01*
X127399D01*
X66202Y7799D02*
X68601D01*
X67401D01*
Y4201D01*
X69800D02*
Y7799D01*
X71600D01*
X72200Y7200D01*
Y6000D01*
X71600Y5400D01*
X69800D01*
X75798Y7799D02*
X73399D01*
Y6000D01*
X74599Y6600D01*
X75199D01*
X75798Y6000D01*
Y4800D01*
X75199Y4201D01*
X73999D01*
X73399Y4800D01*
X9702Y7799D02*
X12101D01*
X10901D01*
Y4201D01*
X13300D02*
Y7799D01*
X15100D01*
X15700Y7200D01*
Y6000D01*
X15100Y5400D01*
X13300D01*
X18699Y4201D02*
Y7799D01*
X16899Y6000D01*
X19298D01*
X154800Y190999D02*
X157199D01*
X156000D01*
Y187400D01*
X158399D02*
Y190999D01*
X160198D01*
X160798Y190399D01*
Y189199D01*
X160198Y188600D01*
X158399D01*
X161998Y190399D02*
X162598Y190999D01*
X163797D01*
X164397Y190399D01*
Y189799D01*
X163797Y189199D01*
X163197D01*
X163797D01*
X164397Y188600D01*
Y188000D01*
X163797Y187400D01*
X162598D01*
X161998Y188000D01*
X55702Y136799D02*
X58101D01*
X56901D01*
Y133201D01*
X59300D02*
Y136799D01*
X61100D01*
X61700Y136200D01*
Y135000D01*
X61100Y134400D01*
X59300D01*
X65298Y133201D02*
X62899D01*
X65298Y135600D01*
Y136200D01*
X64699Y136799D01*
X63499D01*
X62899Y136200D01*
X330400Y192399D02*
X332799D01*
X331600D01*
Y188800D01*
X333999D02*
Y192399D01*
X335798D01*
X336398Y191799D01*
Y190599D01*
X335798Y190000D01*
X333999D01*
X337598Y188800D02*
X338797D01*
X338197D01*
Y192399D01*
X337598Y191799D01*
X180800Y39101D02*
X180201Y38501D01*
Y37301D01*
X180800Y36702D01*
X181400D01*
X182000Y37301D01*
Y38501D01*
X182600Y39101D01*
X183200D01*
X183799Y38501D01*
Y37301D01*
X183200Y36702D01*
X180201Y40300D02*
X183799D01*
X182600Y41500D01*
X183799Y42700D01*
X180201D01*
X180800Y43899D02*
X180201Y44499D01*
Y45699D01*
X180800Y46299D01*
X181400D01*
X182000Y45699D01*
Y45099D01*
Y45699D01*
X182600Y46299D01*
X183200D01*
X183799Y45699D01*
Y44499D01*
X183200Y43899D01*
X5300Y39101D02*
X4701Y38501D01*
Y37301D01*
X5300Y36702D01*
X5900D01*
X6500Y37301D01*
Y38501D01*
X7100Y39101D01*
X7700D01*
X8299Y38501D01*
Y37301D01*
X7700Y36702D01*
X4701Y40300D02*
X8299D01*
X7100Y41500D01*
X8299Y42700D01*
X4701D01*
X8299Y46299D02*
Y43899D01*
X5900Y46299D01*
X5300D01*
X4701Y45699D01*
Y44499D01*
X5300Y43899D01*
X183701Y193700D02*
X183101Y194299D01*
X181901D01*
X181301Y193700D01*
Y193100D01*
X181901Y192500D01*
X183101D01*
X183701Y191900D01*
Y191300D01*
X183101Y190701D01*
X181901D01*
X181301Y191300D01*
X184900Y194299D02*
Y190701D01*
X186100Y191900D01*
X187299Y190701D01*
Y194299D01*
X188499Y190701D02*
X189699D01*
X189099D01*
Y194299D01*
X188499Y193700D01*
X318501Y38701D02*
Y42299D01*
X320301D01*
X320901Y41700D01*
Y40500D01*
X320301Y39900D01*
X318501D01*
X319701D02*
X320901Y38701D01*
X322100D02*
X323300D01*
X322700D01*
Y42299D01*
X322100Y41700D01*
X325099D02*
X325699Y42299D01*
X326899D01*
X327499Y41700D01*
Y41100D01*
X326899Y40500D01*
X326299D01*
X326899D01*
X327499Y39900D01*
Y39300D01*
X326899Y38701D01*
X325699D01*
X325099Y39300D01*
X145501Y44201D02*
Y47799D01*
X147301D01*
X147901Y47200D01*
Y46000D01*
X147301Y45400D01*
X145501D01*
X146701D02*
X147901Y44201D01*
X149100D02*
X150300D01*
X149700D01*
Y47799D01*
X149100Y47200D01*
X154499Y44201D02*
X152099D01*
X154499Y46600D01*
Y47200D01*
X153899Y47799D01*
X152699D01*
X152099Y47200D01*
X318601Y49201D02*
Y52799D01*
X320401D01*
X321001Y52200D01*
Y51000D01*
X320401Y50400D01*
X318601D01*
X319801D02*
X321001Y49201D01*
X322200D02*
X323400D01*
X322800D01*
Y52799D01*
X322200Y52200D01*
X325199Y49201D02*
X326399D01*
X325799D01*
Y52799D01*
X325199Y52200D01*
X145501Y54701D02*
Y58299D01*
X147301D01*
X147901Y57700D01*
Y56500D01*
X147301Y55900D01*
X145501D01*
X146701D02*
X147901Y54701D01*
X149100D02*
X150300D01*
X149700D01*
Y58299D01*
X149100Y57700D01*
X152099D02*
X152699Y58299D01*
X153899D01*
X154499Y57700D01*
Y55300D01*
X153899Y54701D01*
X152699D01*
X152099Y55300D01*
Y57700D01*
X318501Y59201D02*
Y62799D01*
X320300D01*
X320900Y62200D01*
Y61000D01*
X320300Y60400D01*
X318501D01*
X319701D02*
X320900Y59201D01*
X322100Y59800D02*
X322700Y59201D01*
X323899D01*
X324499Y59800D01*
Y62200D01*
X323899Y62799D01*
X322700D01*
X322100Y62200D01*
Y61600D01*
X322700Y61000D01*
X324499D01*
X144501Y65201D02*
Y68799D01*
X146300D01*
X146900Y68200D01*
Y67000D01*
X146300Y66400D01*
X144501D01*
X145701D02*
X146900Y65201D01*
X148100Y68200D02*
X148700Y68799D01*
X149899D01*
X150499Y68200D01*
Y67600D01*
X149899Y67000D01*
X150499Y66400D01*
Y65800D01*
X149899Y65201D01*
X148700D01*
X148100Y65800D01*
Y66400D01*
X148700Y67000D01*
X148100Y67600D01*
Y68200D01*
X148700Y67000D02*
X149899D01*
X308001Y70701D02*
Y74299D01*
X309800D01*
X310400Y73700D01*
Y72500D01*
X309800Y71900D01*
X308001D01*
X309201D02*
X310400Y70701D01*
X311600Y74299D02*
X313999D01*
Y73700D01*
X311600Y71300D01*
Y70701D01*
X98970Y74701D02*
Y78299D01*
X100769D01*
X101369Y77700D01*
Y76500D01*
X100769Y75900D01*
X98970D01*
X100169D02*
X101369Y74701D01*
X104967Y78299D02*
X103768Y77700D01*
X102568Y76500D01*
Y75300D01*
X103168Y74701D01*
X104368D01*
X104967Y75300D01*
Y75900D01*
X104368Y76500D01*
X102568D01*
X306001Y152701D02*
Y156299D01*
X307800D01*
X308400Y155700D01*
Y154500D01*
X307800Y153900D01*
X306001D01*
X307201D02*
X308400Y152701D01*
X311999Y156299D02*
X309600D01*
Y154500D01*
X310799Y155100D01*
X311399D01*
X311999Y154500D01*
Y153300D01*
X311399Y152701D01*
X310200D01*
X309600Y153300D01*
X223501Y189701D02*
Y193299D01*
X225300D01*
X225900Y192700D01*
Y191500D01*
X225300Y190900D01*
X223501D01*
X224701D02*
X225900Y189701D01*
X228899D02*
Y193299D01*
X227100Y191500D01*
X229499D01*
X198761Y142201D02*
Y145799D01*
X200560D01*
X201160Y145200D01*
Y144000D01*
X200560Y143400D01*
X198761D01*
X199960D02*
X201160Y142201D01*
X202360Y145200D02*
X202959Y145799D01*
X204159D01*
X204759Y145200D01*
Y144600D01*
X204159Y144000D01*
X203559D01*
X204159D01*
X204759Y143400D01*
Y142800D01*
X204159Y142201D01*
X202959D01*
X202360Y142800D01*
X90001Y162201D02*
Y165799D01*
X91800D01*
X92400Y165200D01*
Y164000D01*
X91800Y163400D01*
X90001D01*
X91201D02*
X92400Y162201D01*
X95999D02*
X93600D01*
X95999Y164600D01*
Y165200D01*
X95399Y165799D01*
X94200D01*
X93600Y165200D01*
X224101Y170701D02*
Y174299D01*
X225900D01*
X226500Y173700D01*
Y172500D01*
X225900Y171900D01*
X224101D01*
X225300D02*
X226500Y170701D01*
X227700D02*
X228899D01*
X228299D01*
Y174299D01*
X227700Y173700D01*
X127801Y190701D02*
Y194299D01*
X129601D01*
X130201Y193700D01*
Y192500D01*
X129601Y191900D01*
X127801D01*
X133799Y193700D02*
X133200Y194299D01*
X132000D01*
X131400Y193700D01*
Y193100D01*
X132000Y192500D01*
X133200D01*
X133799Y191900D01*
Y191300D01*
X133200Y190701D01*
X132000D01*
X131400Y191300D01*
X134999Y190701D02*
X136199D01*
X135599D01*
Y194299D01*
X134999Y193700D01*
X6601Y154701D02*
Y158299D01*
X8400D01*
X9000Y157700D01*
Y156500D01*
X8400Y155900D01*
X6601D01*
X10200Y154701D02*
X11399D01*
X10799D01*
Y158299D01*
X10200Y157700D01*
X283402Y42799D02*
Y39201D01*
X285801D01*
X289400Y42799D02*
X287001D01*
Y39201D01*
X289400D01*
X287001Y41000D02*
X288201D01*
X290600Y42799D02*
Y39201D01*
X292399D01*
X292999Y39800D01*
Y42200D01*
X292399Y42799D01*
X290600D01*
X294199Y39800D02*
X294798Y39201D01*
X295998D01*
X296598Y39800D01*
Y42200D01*
X295998Y42799D01*
X294798D01*
X294199Y42200D01*
Y41600D01*
X294798Y41000D01*
X296598D01*
X105402Y48799D02*
Y45201D01*
X107801D01*
X111400Y48799D02*
X109001D01*
Y45201D01*
X111400D01*
X109001Y47000D02*
X110201D01*
X112600Y48799D02*
Y45201D01*
X114399D01*
X114999Y45800D01*
Y48200D01*
X114399Y48799D01*
X112600D01*
X116199Y48200D02*
X116798Y48799D01*
X117998D01*
X118598Y48200D01*
Y47600D01*
X117998Y47000D01*
X118598Y46400D01*
Y45800D01*
X117998Y45201D01*
X116798D01*
X116199Y45800D01*
Y46400D01*
X116798Y47000D01*
X116199Y47600D01*
Y48200D01*
X116798Y47000D02*
X117998D01*
X283402Y52799D02*
Y49201D01*
X285801D01*
X289400Y52799D02*
X287001D01*
Y49201D01*
X289400D01*
X287001Y51000D02*
X288201D01*
X290600Y52799D02*
Y49201D01*
X292399D01*
X292999Y49800D01*
Y52200D01*
X292399Y52799D01*
X290600D01*
X294199D02*
X296598D01*
Y52200D01*
X294199Y49800D01*
Y49201D01*
X105355Y59299D02*
Y55701D01*
X107754D01*
X111353Y59299D02*
X108954D01*
Y55701D01*
X111353D01*
X108954Y57500D02*
X110153D01*
X112553Y59299D02*
Y55701D01*
X114352D01*
X114952Y56300D01*
Y58700D01*
X114352Y59299D01*
X112553D01*
X118551D02*
X117351Y58700D01*
X116151Y57500D01*
Y56300D01*
X116751Y55701D01*
X117951D01*
X118551Y56300D01*
Y56900D01*
X117951Y57500D01*
X116151D01*
X283402Y63299D02*
Y59701D01*
X285801D01*
X289400Y63299D02*
X287001D01*
Y59701D01*
X289400D01*
X287001Y61500D02*
X288201D01*
X290600Y63299D02*
Y59701D01*
X292399D01*
X292999Y60300D01*
Y62700D01*
X292399Y63299D01*
X290600D01*
X296598D02*
X294199D01*
Y61500D01*
X295398Y62100D01*
X295998D01*
X296598Y61500D01*
Y60300D01*
X295998Y59701D01*
X294798D01*
X294199Y60300D01*
X105402Y69299D02*
Y65701D01*
X107801D01*
X111400Y69299D02*
X109001D01*
Y65701D01*
X111400D01*
X109001Y67500D02*
X110201D01*
X112600Y69299D02*
Y65701D01*
X114399D01*
X114999Y66300D01*
Y68700D01*
X114399Y69299D01*
X112600D01*
X117998Y65701D02*
Y69299D01*
X116199Y67500D01*
X118598D01*
X308902Y174799D02*
Y171201D01*
X311301D01*
X314900Y174799D02*
X312501D01*
Y171201D01*
X314900D01*
X312501Y173000D02*
X313701D01*
X316100Y174799D02*
Y171201D01*
X317899D01*
X318499Y171800D01*
Y174200D01*
X317899Y174799D01*
X316100D01*
X319699Y174200D02*
X320299Y174799D01*
X321498D01*
X322098Y174200D01*
Y173600D01*
X321498Y173000D01*
X320898D01*
X321498D01*
X322098Y172400D01*
Y171800D01*
X321498Y171201D01*
X320299D01*
X319699Y171800D01*
X188402Y170799D02*
Y167201D01*
X190801D01*
X194400Y170799D02*
X192001D01*
Y167201D01*
X194400D01*
X192001Y169000D02*
X193201D01*
X195600Y170799D02*
Y167201D01*
X197399D01*
X197999Y167800D01*
Y170200D01*
X197399Y170799D01*
X195600D01*
X201598Y167201D02*
X199199D01*
X201598Y169600D01*
Y170200D01*
X200998Y170799D01*
X199799D01*
X199199Y170200D01*
X90002Y178799D02*
Y175201D01*
X92401D01*
X96000Y178799D02*
X93601D01*
Y175201D01*
X96000D01*
X93601Y177000D02*
X94800D01*
X97200Y178799D02*
Y175201D01*
X98999D01*
X99599Y175800D01*
Y178200D01*
X98999Y178799D01*
X97200D01*
X100798Y175201D02*
X101998D01*
X101398D01*
Y178799D01*
X100798Y178200D01*
X282900Y73700D02*
X282300Y74299D01*
X281101D01*
X280501Y73700D01*
Y71300D01*
X281101Y70701D01*
X282300D01*
X282900Y71300D01*
X286499Y74299D02*
X285299Y73700D01*
X284100Y72500D01*
Y71300D01*
X284700Y70701D01*
X285899D01*
X286499Y71300D01*
Y71900D01*
X285899Y72500D01*
X284100D01*
X173400Y125700D02*
X172800Y126299D01*
X171601D01*
X171001Y125700D01*
Y123300D01*
X171601Y122701D01*
X172800D01*
X173400Y123300D01*
X176999Y126299D02*
X174600D01*
Y124500D01*
X175799Y125100D01*
X176399D01*
X176999Y124500D01*
Y123300D01*
X176399Y122701D01*
X175200D01*
X174600Y123300D01*
X226837Y152700D02*
X226237Y153299D01*
X225038D01*
X224438Y152700D01*
Y150300D01*
X225038Y149701D01*
X226237D01*
X226837Y150300D01*
X229836Y149701D02*
Y153299D01*
X228037Y151500D01*
X230436D01*
X140900Y146700D02*
X140300Y147299D01*
X139101D01*
X138501Y146700D01*
Y144300D01*
X139101Y143701D01*
X140300D01*
X140900Y144300D01*
X142100Y146700D02*
X142700Y147299D01*
X143899D01*
X144499Y146700D01*
Y146100D01*
X143899Y145500D01*
X143299D01*
X143899D01*
X144499Y144900D01*
Y144300D01*
X143899Y143701D01*
X142700D01*
X142100Y144300D01*
X92400Y190200D02*
X91800Y190799D01*
X90601D01*
X90001Y190200D01*
Y187800D01*
X90601Y187201D01*
X91800D01*
X92400Y187800D01*
X95999Y187201D02*
X93600D01*
X95999Y189600D01*
Y190200D01*
X95399Y190799D01*
X94200D01*
X93600Y190200D01*
X308000Y193200D02*
X307400Y193799D01*
X306201D01*
X305601Y193200D01*
Y190800D01*
X306201Y190201D01*
X307400D01*
X308000Y190800D01*
X309200Y190201D02*
X310399D01*
X309799D01*
Y193799D01*
X309200Y193200D01*
D13*
X219500Y75500D02*
G03*
X219500Y75500I-500J0D01*
G01*
X38000Y81000D02*
G03*
X38000Y81000I-500J0D01*
G01*
X66500Y22500D02*
X108500D01*
Y11500D02*
Y22500D01*
X107000Y11500D02*
X108500D01*
X66500D02*
Y22500D01*
Y11500D02*
X77000D01*
X120500Y22500D02*
X162500D01*
Y11500D02*
Y22500D01*
X161000Y11500D02*
X162500D01*
X120500D02*
Y22500D01*
Y11500D02*
X131000D01*
X10500Y22500D02*
X52500D01*
Y11500D02*
Y22500D01*
X51000Y11500D02*
X52500D01*
X10500D02*
Y22500D01*
Y11500D02*
X21000D01*
X9000Y133500D02*
X51000D01*
X9000D02*
Y144500D01*
X10500D01*
X51000Y133500D02*
Y144500D01*
X40500D02*
X51000D01*
X166000Y142000D02*
Y152500D01*
X155000Y142000D02*
X166000D01*
Y182500D02*
Y184000D01*
X155000D02*
X166000D01*
X155000Y142000D02*
Y184000D01*
X299000Y22500D02*
X341000D01*
Y11500D02*
Y22500D01*
X339500Y11500D02*
X341000D01*
X299000D02*
Y22500D01*
Y11500D02*
X309500D01*
X244000Y22500D02*
X286000D01*
Y11500D02*
Y22500D01*
X284500Y11500D02*
X286000D01*
X244000D02*
Y22500D01*
Y11500D02*
X254500D01*
X188500Y22500D02*
X230500D01*
Y11500D02*
Y22500D01*
X229000Y11500D02*
X230500D01*
X188500D02*
Y22500D01*
Y11500D02*
X199000D01*
X341500Y143500D02*
Y154000D01*
X330500Y143500D02*
X341500D01*
Y184000D02*
Y185500D01*
X330500D02*
X341500D01*
X330500Y143500D02*
Y185500D01*
D14*
X273494Y159200D02*
G03*
X273494Y159200I-394J0D01*
G01*
D15*
X102023Y7500D02*
X102750D01*
X101250Y9000D02*
X103750D01*
X102500Y10500D02*
Y11527D01*
X100250Y10500D02*
X104750D01*
X92023Y7500D02*
X92750D01*
X91250Y9000D02*
X93750D01*
X92500Y10500D02*
Y11527D01*
X90250Y10500D02*
X94750D01*
X82023Y7500D02*
X82750D01*
X81250Y9000D02*
X83750D01*
X82500Y10500D02*
Y11527D01*
X80250Y10500D02*
X84750D01*
X156023Y7500D02*
X156750D01*
X155250Y9000D02*
X157750D01*
X156500Y10500D02*
Y11527D01*
X154250Y10500D02*
X158750D01*
X146023Y7500D02*
X146750D01*
X145250Y9000D02*
X147750D01*
X146500Y10500D02*
Y11527D01*
X144250Y10500D02*
X148750D01*
X136023Y7500D02*
X136750D01*
X135250Y9000D02*
X137750D01*
X136500Y10500D02*
Y11527D01*
X134250Y10500D02*
X138750D01*
X46023Y7500D02*
X46750D01*
X45250Y9000D02*
X47750D01*
X46500Y10500D02*
Y11527D01*
X44250Y10500D02*
X48750D01*
X36023Y7500D02*
X36750D01*
X35250Y9000D02*
X37750D01*
X36500Y10500D02*
Y11527D01*
X34250Y10500D02*
X38750D01*
X26023Y7500D02*
X26750D01*
X25250Y9000D02*
X27750D01*
X26500Y10500D02*
Y11527D01*
X24250Y10500D02*
X28750D01*
X14750Y148500D02*
X15477D01*
X13750Y147000D02*
X16250D01*
X15000Y144473D02*
Y145500D01*
X12750D02*
X17250D01*
X24750Y148500D02*
X25477D01*
X23750Y147000D02*
X26250D01*
X25000Y144473D02*
Y145500D01*
X22750D02*
X27250D01*
X34750Y148500D02*
X35477D01*
X33750Y147000D02*
X36250D01*
X35000Y144473D02*
Y145500D01*
X32750D02*
X37250D01*
X167000Y155750D02*
Y160250D01*
X165973Y158000D02*
X167000D01*
X168500Y156750D02*
Y159250D01*
X170000Y157523D02*
Y158250D01*
X167000Y165750D02*
Y170250D01*
X165973Y168000D02*
X167000D01*
X168500Y166750D02*
Y169250D01*
X170000Y167523D02*
Y168250D01*
X167000Y175750D02*
Y180250D01*
X165973Y178000D02*
X167000D01*
X168500Y176750D02*
Y179250D01*
X170000Y177523D02*
Y178250D01*
X33591Y179500D02*
X33622D01*
X334523Y7500D02*
X335250D01*
X333750Y9000D02*
X336250D01*
X335000Y10500D02*
Y11527D01*
X332750Y10500D02*
X337250D01*
X324523Y7500D02*
X325250D01*
X323750Y9000D02*
X326250D01*
X325000Y10500D02*
Y11527D01*
X322750Y10500D02*
X327250D01*
X314523Y7500D02*
X315250D01*
X313750Y9000D02*
X316250D01*
X315000Y10500D02*
Y11527D01*
X312750Y10500D02*
X317250D01*
X279523Y7500D02*
X280250D01*
X278750Y9000D02*
X281250D01*
X280000Y10500D02*
Y11527D01*
X277750Y10500D02*
X282250D01*
X269523Y7500D02*
X270250D01*
X268750Y9000D02*
X271250D01*
X270000Y10500D02*
Y11527D01*
X267750Y10500D02*
X272250D01*
X259523Y7500D02*
X260250D01*
X258750Y9000D02*
X261250D01*
X260000Y10500D02*
Y11527D01*
X257750Y10500D02*
X262250D01*
X224023Y7500D02*
X224750D01*
X223250Y9000D02*
X225750D01*
X224500Y10500D02*
Y11527D01*
X222250Y10500D02*
X226750D01*
X214023Y7500D02*
X214750D01*
X213250Y9000D02*
X215750D01*
X214500Y10500D02*
Y11527D01*
X212250Y10500D02*
X216750D01*
X204023Y7500D02*
X204750D01*
X203250Y9000D02*
X205750D01*
X204500Y10500D02*
Y11527D01*
X202250Y10500D02*
X206750D01*
X342500Y157250D02*
Y161750D01*
X341473Y159500D02*
X342500D01*
X344000Y158250D02*
Y160750D01*
X345500Y159023D02*
Y159750D01*
X342500Y167250D02*
Y171750D01*
X341473Y169500D02*
X342500D01*
X344000Y168250D02*
Y170750D01*
X345500Y169023D02*
Y169750D01*
X342500Y177250D02*
Y181750D01*
X341473Y179500D02*
X342500D01*
X344000Y178250D02*
Y180750D01*
X345500Y179023D02*
Y179750D01*
X188200Y158300D02*
Y161700D01*
X95300Y44800D02*
Y48200D01*
Y54800D02*
Y58200D01*
Y64800D02*
Y68200D01*
X84800Y175800D02*
Y179200D01*
X273253Y59300D02*
Y62700D01*
Y39300D02*
Y42700D01*
X273347Y49300D02*
Y52700D01*
X314800Y162800D02*
Y166200D01*
D16*
X11500Y47728D02*
Y71272D01*
X21465D01*
Y47728D02*
Y71272D01*
X11500Y47728D02*
X21465D01*
X205319Y177000D02*
Y186965D01*
X181775D02*
X205319D01*
X181775Y177000D02*
Y186965D01*
Y177000D02*
X205319D01*
X189500Y47728D02*
Y71272D01*
X199465D01*
Y47728D02*
Y71272D01*
X189500Y47728D02*
X199465D01*
D17*
X3276Y161784D02*
X38512D01*
X59969Y189000D02*
Y197216D01*
X3276D02*
X59969D01*
X3276Y161784D02*
Y197216D01*
X59969Y161784D02*
Y170800D01*
X55222Y161784D02*
X59969D01*
X226323Y38559D02*
X241677D01*
X226323Y73441D02*
X241677D01*
X44823Y78941D02*
X60177D01*
X44823Y44059D02*
X60177D01*
D18*
X265202Y177400D02*
X277800D01*
X265200Y155600D02*
X277798D01*
D19*
X192232Y125065D02*
X188900D01*
Y120066D01*
X192232D01*
X188900Y122565D02*
X190566D01*
X197231Y124231D02*
X196398Y125065D01*
X194731D01*
X193898Y124231D01*
Y120899D01*
X194731Y120066D01*
X196398D01*
X197231Y120899D01*
X202229Y125065D02*
X198897D01*
Y120066D01*
X202229D01*
X198897Y122565D02*
X200563D01*
X203895Y120066D02*
Y125065D01*
X207227Y120066D01*
Y125065D01*
X212226D02*
X208893D01*
Y122565D01*
X210560Y123398D01*
X211393D01*
X212226Y122565D01*
Y120899D01*
X211393Y120066D01*
X209727D01*
X208893Y120899D01*
X213892Y125065D02*
X217224D01*
Y124231D01*
X213892Y120899D01*
Y120066D01*
X218890Y124231D02*
X219723Y125065D01*
X221390D01*
X222222Y124231D01*
Y123398D01*
X221390Y122565D01*
X220556D01*
X221390D01*
X222222Y121732D01*
Y120899D01*
X221390Y120066D01*
X219723D01*
X218890Y120899D01*
X223889Y124231D02*
X224722Y125065D01*
X226388D01*
X227221Y124231D01*
Y120899D01*
X226388Y120066D01*
X224722D01*
X223889Y120899D01*
Y124231D01*
X237218D02*
X236385Y125065D01*
X234718D01*
X233885Y124231D01*
Y123398D01*
X234718Y122565D01*
X236385D01*
X237218Y121732D01*
Y120899D01*
X236385Y120066D01*
X234718D01*
X233885Y120899D01*
X238884Y123398D02*
Y120899D01*
X239717Y120066D01*
X240550Y120899D01*
X241383Y120066D01*
X242216Y120899D01*
Y123398D01*
X243882Y120066D02*
X245548D01*
X244715D01*
Y123398D01*
X243882D01*
X248881Y124231D02*
Y123398D01*
X248047D01*
X249714D01*
X248881D01*
Y120899D01*
X249714Y120066D01*
X255545Y123398D02*
X253046D01*
X252213Y122565D01*
Y120899D01*
X253046Y120066D01*
X255545D01*
X257211Y125065D02*
Y120066D01*
Y122565D01*
X258044Y123398D01*
X259710D01*
X260543Y122565D01*
Y120066D01*
X262210D02*
X263876D01*
X263043D01*
Y123398D01*
X262210D01*
X266375Y120066D02*
Y123398D01*
X268874D01*
X269707Y122565D01*
Y120066D01*
X273039Y118400D02*
X273872D01*
X274706Y119233D01*
Y123398D01*
X272206D01*
X271373Y122565D01*
Y120899D01*
X272206Y120066D01*
X274706D01*
X281370D02*
Y125065D01*
X284702Y120066D01*
Y125065D01*
X287201Y120066D02*
X288868D01*
X289701Y120899D01*
Y122565D01*
X288868Y123398D01*
X287201D01*
X286368Y122565D01*
Y120899D01*
X287201Y120066D01*
X291367D02*
X293033D01*
X292200D01*
Y123398D01*
X291367D01*
X295532Y120066D02*
X298031D01*
X298864Y120899D01*
X298031Y121732D01*
X296365D01*
X295532Y122565D01*
X296365Y123398D01*
X298864D01*
X303030Y120066D02*
X301364D01*
X300531Y120899D01*
Y122565D01*
X301364Y123398D01*
X303030D01*
X303863Y122565D01*
Y121732D01*
X300531D01*
X310527Y125065D02*
Y120066D01*
X313026D01*
X313860Y120899D01*
Y121732D01*
Y122565D01*
X313026Y123398D01*
X310527D01*
X315526D02*
Y120066D01*
Y121732D01*
X316359Y122565D01*
X317192Y123398D01*
X318025D01*
X323856Y125065D02*
Y120066D01*
X321357D01*
X320524Y120899D01*
Y122565D01*
X321357Y123398D01*
X323856D01*
X189400Y107066D02*
Y112065D01*
X191899D01*
X192732Y111231D01*
Y109565D01*
X191899Y108732D01*
X189400D01*
X191066D02*
X192732Y107066D01*
X195231Y110398D02*
X196898D01*
X197731Y109565D01*
Y107066D01*
X195231D01*
X194398Y107899D01*
X195231Y108732D01*
X197731D01*
X199397Y105400D02*
X200230D01*
X201063Y106233D01*
Y110398D01*
X205228D02*
X206894D01*
X207727Y109565D01*
Y107066D01*
X205228D01*
X204395Y107899D01*
X205228Y108732D01*
X207727D01*
X210227Y111231D02*
Y110398D01*
X209394D01*
X211060D01*
X210227D01*
Y107899D01*
X211060Y107066D01*
X221889Y111231D02*
X221056Y112065D01*
X219390D01*
X218557Y111231D01*
Y107899D01*
X219390Y107066D01*
X221056D01*
X221889Y107899D01*
X223556Y112065D02*
Y107066D01*
Y109565D01*
X224389Y110398D01*
X226055D01*
X226888Y109565D01*
Y107066D01*
X229387Y110398D02*
X231053D01*
X231886Y109565D01*
Y107066D01*
X229387D01*
X228554Y107899D01*
X229387Y108732D01*
X231886D01*
X233552Y105400D02*
Y110398D01*
X236052D01*
X236885Y109565D01*
Y107899D01*
X236052Y107066D01*
X233552D01*
X238551D02*
X240217D01*
X239384D01*
Y112065D01*
X238551D01*
X245215Y107066D02*
X243549D01*
X242716Y107899D01*
Y109565D01*
X243549Y110398D01*
X245215D01*
X246048Y109565D01*
Y108732D01*
X242716D01*
X248548Y106233D02*
X249381Y107066D01*
Y107899D01*
X248548D01*
Y107066D01*
X249381D01*
X248548Y106233D01*
X247714Y105400D01*
X261044Y107066D02*
X257711D01*
X261044Y110398D01*
Y111231D01*
X260210Y112065D01*
X258544D01*
X257711Y111231D01*
X262710D02*
X263543Y112065D01*
X265209D01*
X266042Y111231D01*
Y107899D01*
X265209Y107066D01*
X263543D01*
X262710Y107899D01*
Y111231D01*
X271040Y107066D02*
X267708D01*
X271040Y110398D01*
Y111231D01*
X270207Y112065D01*
X268541D01*
X267708Y111231D01*
X276039Y107066D02*
X272706D01*
X276039Y110398D01*
Y111231D01*
X275205Y112065D01*
X273539D01*
X272706Y111231D01*
X277705Y109565D02*
X281037D01*
X282703Y111231D02*
X283536Y112065D01*
X285202D01*
X286035Y111231D01*
Y107899D01*
X285202Y107066D01*
X283536D01*
X282703Y107899D01*
Y111231D01*
X287702Y112065D02*
X291034D01*
Y111231D01*
X287702Y107899D01*
Y107066D01*
X292700Y109565D02*
X296032D01*
X297698Y111231D02*
X298531Y112065D01*
X300197D01*
X301030Y111231D01*
Y107899D01*
X300197Y107066D01*
X298531D01*
X297698Y107899D01*
Y111231D01*
X306029Y107066D02*
X302697D01*
X306029Y110398D01*
Y111231D01*
X305196Y112065D01*
X303530D01*
X302697Y111231D01*
X193232Y99731D02*
X189900D01*
Y94733D01*
X193232D01*
X189900Y97232D02*
X191566D01*
X198231Y98898D02*
X197398Y99731D01*
X195731D01*
X194898Y98898D01*
Y95566D01*
X195731Y94733D01*
X197398D01*
X198231Y95566D01*
X203229Y99731D02*
X199897D01*
Y94733D01*
X203229D01*
X199897Y97232D02*
X201563D01*
X204895Y94733D02*
Y99731D01*
X208227Y94733D01*
Y99731D01*
X213226D02*
X209893D01*
Y97232D01*
X211560Y98065D01*
X212393D01*
X213226Y97232D01*
Y95566D01*
X212393Y94733D01*
X210727D01*
X209893Y95566D01*
X214892Y99731D02*
X218224D01*
Y98898D01*
X214892Y95566D01*
Y94733D01*
X219890Y98898D02*
X220723Y99731D01*
X222390D01*
X223222Y98898D01*
Y98065D01*
X222390Y97232D01*
X221556D01*
X222390D01*
X223222Y96399D01*
Y95566D01*
X222390Y94733D01*
X220723D01*
X219890Y95566D01*
X224889Y98898D02*
X225722Y99731D01*
X227388D01*
X228221Y98898D01*
Y95566D01*
X227388Y94733D01*
X225722D01*
X224889Y95566D01*
Y98898D01*
X229887Y93900D02*
X233219D01*
X234885Y99731D02*
Y94733D01*
X237385D01*
X238218Y95566D01*
Y96399D01*
Y97232D01*
X237385Y98065D01*
X234885D01*
X239884D02*
Y94733D01*
Y96399D01*
X240717Y97232D01*
X241550Y98065D01*
X242383D01*
X248214Y99731D02*
Y94733D01*
X245715D01*
X244882Y95566D01*
Y97232D01*
X245715Y98065D01*
X248214D01*
X253213Y94733D02*
X249881D01*
X253213Y98065D01*
Y98898D01*
X252380Y99731D01*
X250714D01*
X249881Y98898D01*
X255712Y98065D02*
X257378D01*
X258211Y97232D01*
Y94733D01*
X255712D01*
X254879Y95566D01*
X255712Y96399D01*
X258211D01*
X259877Y93900D02*
X263210D01*
X268208Y94733D02*
X264876D01*
X268208Y98065D01*
Y98898D01*
X267375Y99731D01*
X265709D01*
X264876Y98898D01*
X269874D02*
X270707Y99731D01*
X272373D01*
X273206Y98898D01*
Y95566D01*
X272373Y94733D01*
X270707D01*
X269874Y95566D01*
Y98898D01*
X278205Y94733D02*
X274872D01*
X278205Y98065D01*
Y98898D01*
X277372Y99731D01*
X275706D01*
X274872Y98898D01*
X283203Y94733D02*
X279871D01*
X283203Y98065D01*
Y98898D01*
X282370Y99731D01*
X280704D01*
X279871Y98898D01*
X284869Y93900D02*
X288201D01*
X289868Y98898D02*
X290701Y99731D01*
X292367D01*
X293200Y98898D01*
Y95566D01*
X292367Y94733D01*
X290701D01*
X289868Y95566D01*
Y98898D01*
X294866Y99731D02*
X298198D01*
Y98898D01*
X294866Y95566D01*
Y94733D01*
X299864Y93900D02*
X303197D01*
X304863Y98898D02*
X305696Y99731D01*
X307362D01*
X308195Y98898D01*
Y95566D01*
X307362Y94733D01*
X305696D01*
X304863Y95566D01*
Y98898D01*
X313193Y94733D02*
X309861D01*
X313193Y98065D01*
Y98898D01*
X312360Y99731D01*
X310694D01*
X309861Y98898D01*
M02*
