G04*
G04 #@! TF.GenerationSoftware,Altium Limited,Altium Designer,22.1.2 (22)*
G04*
G04 Layer_Color=8388736*
%FSLAX25Y25*%
%MOIN*%
G70*
G04*
G04 #@! TF.SameCoordinates,52BC5A9B-E7CF-49AA-A5AC-D027EE08C1C4*
G04*
G04*
G04 #@! TF.FilePolarity,Negative*
G04*
G01*
G75*
%ADD21R,0.02362X0.02756*%
%ADD22R,0.03937X0.05709*%
%ADD27R,0.05709X0.03937*%
%ADD28C,0.00000*%
%ADD29R,0.03950X0.03950*%
%ADD30R,0.13000X0.07100*%
%ADD31R,0.04100X0.07100*%
%ADD32R,0.11233X0.03162*%
%ADD33R,0.14186X0.03162*%
%ADD34C,0.07800*%
%ADD35C,0.07178*%
%ADD36O,0.08674X0.15761*%
%ADD37O,0.13792X0.07887*%
%ADD38C,0.03000*%
%ADD39C,0.03300*%
D21*
X133031Y46500D02*
D03*
X136969D02*
D03*
X133031Y56500D02*
D03*
X136969D02*
D03*
X310032Y41000D02*
D03*
X313968D02*
D03*
X310032Y51000D02*
D03*
X313968D02*
D03*
X310032Y61000D02*
D03*
X313968D02*
D03*
X297031Y72500D02*
D03*
X300969D02*
D03*
X227437Y143000D02*
D03*
X223500D02*
D03*
X133031Y66500D02*
D03*
X136969D02*
D03*
X87000Y76500D02*
D03*
X90937D02*
D03*
D22*
X83000Y189500D02*
D03*
X75520D02*
D03*
X75260Y165000D02*
D03*
X82740D02*
D03*
X263760Y72000D02*
D03*
X271240D02*
D03*
X230240Y182500D02*
D03*
X222760D02*
D03*
X230240Y163500D02*
D03*
X222760D02*
D03*
X305760Y145500D02*
D03*
X313240D02*
D03*
X313240Y183000D02*
D03*
X305760D02*
D03*
X121760Y146000D02*
D03*
X129240D02*
D03*
X183020Y144500D02*
D03*
X190500D02*
D03*
D27*
X164000Y127490D02*
D03*
Y120010D02*
D03*
D28*
X19890Y54500D02*
G03*
X19890Y54500I-3390J0D01*
G01*
Y64500D02*
G03*
X19890Y64500I-3390J0D01*
G01*
X191937Y182000D02*
G03*
X191937Y182000I-3390J0D01*
G01*
X201937D02*
G03*
X201937Y182000I-3390J0D01*
G01*
X197890Y54500D02*
G03*
X197890Y54500I-3390J0D01*
G01*
Y64500D02*
G03*
X197890Y64500I-3390J0D01*
G01*
D29*
X191547Y160000D02*
D03*
X197453D02*
D03*
X91953Y46500D02*
D03*
X86047D02*
D03*
X91953Y56500D02*
D03*
X86047D02*
D03*
X91953Y66500D02*
D03*
X86047D02*
D03*
X81453Y177500D02*
D03*
X75547D02*
D03*
X269905Y61000D02*
D03*
X264000D02*
D03*
X269905Y41000D02*
D03*
X264000D02*
D03*
X270000Y51000D02*
D03*
X264094D02*
D03*
X311453Y164500D02*
D03*
X305547D02*
D03*
D30*
X131000Y182600D02*
D03*
D31*
X121900Y157400D02*
D03*
X131000D02*
D03*
X140100D02*
D03*
D32*
X245000Y71000D02*
D03*
X245165Y66000D02*
D03*
Y61000D02*
D03*
Y56000D02*
D03*
Y51000D02*
D03*
Y46000D02*
D03*
Y41000D02*
D03*
X222835D02*
D03*
Y46000D02*
D03*
Y51000D02*
D03*
Y56000D02*
D03*
Y61000D02*
D03*
Y66000D02*
D03*
Y71000D02*
D03*
X41335Y76500D02*
D03*
Y71500D02*
D03*
Y66500D02*
D03*
Y61500D02*
D03*
Y56500D02*
D03*
Y51500D02*
D03*
Y46500D02*
D03*
X63665D02*
D03*
Y51500D02*
D03*
Y56500D02*
D03*
Y61500D02*
D03*
Y66500D02*
D03*
Y71500D02*
D03*
X63500Y76500D02*
D03*
D33*
X282130Y159000D02*
D03*
Y164000D02*
D03*
Y169000D02*
D03*
Y174000D02*
D03*
X260870D02*
D03*
Y169000D02*
D03*
Y164000D02*
D03*
Y159000D02*
D03*
D34*
X82500Y17000D02*
D03*
X72500D02*
D03*
X102500D02*
D03*
X92500D02*
D03*
X136500D02*
D03*
X126500D02*
D03*
X156500D02*
D03*
X146500D02*
D03*
X26500D02*
D03*
X16500D02*
D03*
X46500D02*
D03*
X36500D02*
D03*
X35000Y139000D02*
D03*
X45000D02*
D03*
X15000D02*
D03*
X25000D02*
D03*
X160500Y168000D02*
D03*
Y178000D02*
D03*
Y148000D02*
D03*
Y158000D02*
D03*
X315000Y17000D02*
D03*
X305000D02*
D03*
X335000D02*
D03*
X325000D02*
D03*
X260000D02*
D03*
X250000D02*
D03*
X280000D02*
D03*
X270000D02*
D03*
X204500D02*
D03*
X194500D02*
D03*
X224500D02*
D03*
X214500D02*
D03*
X336000Y169500D02*
D03*
Y179500D02*
D03*
Y149500D02*
D03*
Y159500D02*
D03*
D35*
X16500Y54500D02*
D03*
Y64500D02*
D03*
X188547Y182000D02*
D03*
X198547D02*
D03*
X194500Y54500D02*
D03*
Y64500D02*
D03*
D36*
X57122Y179500D02*
D03*
X33500D02*
D03*
D37*
X47280Y161193D02*
D03*
D38*
X314000Y46000D02*
D03*
Y56000D02*
D03*
Y66500D02*
D03*
X173500Y75500D02*
D03*
X176000Y144500D02*
D03*
X88000Y195500D02*
D03*
X276000Y72000D02*
D03*
X299000Y145000D02*
D03*
X293000Y159000D02*
D03*
X70000Y165000D02*
D03*
X113500Y157500D02*
D03*
X214000Y41000D02*
D03*
Y61000D02*
D03*
X234469Y143000D02*
D03*
X164000Y132000D02*
D03*
D39*
X269452Y169048D02*
D03*
X273548Y163952D02*
D03*
M02*
