G04*
G04 #@! TF.GenerationSoftware,Altium Limited,Altium Designer,22.1.2 (22)*
G04*
G04 Layer_Color=8421504*
%FSLAX25Y25*%
%MOIN*%
G70*
G04*
G04 #@! TF.SameCoordinates,52BC5A9B-E7CF-49AA-A5AC-D027EE08C1C4*
G04*
G04*
G04 #@! TF.FilePolarity,Positive*
G04*
G01*
G75*
%ADD20R,0.03150X0.03150*%
%ADD21R,0.02362X0.02756*%
%ADD22R,0.03937X0.05709*%
%ADD23R,0.12200X0.06300*%
%ADD24R,0.03300X0.06300*%
%ADD25R,0.10433X0.02362*%
%ADD26R,0.13386X0.02362*%
%ADD27R,0.05709X0.03937*%
D20*
X191547Y160000D02*
D03*
X197453D02*
D03*
X91953Y46500D02*
D03*
X86047D02*
D03*
X91953Y56500D02*
D03*
X86047D02*
D03*
X91953Y66500D02*
D03*
X86047D02*
D03*
X81453Y177500D02*
D03*
X75547D02*
D03*
X269905Y61000D02*
D03*
X264000D02*
D03*
X269905Y41000D02*
D03*
X264000D02*
D03*
X270000Y51000D02*
D03*
X264094D02*
D03*
X311453Y164500D02*
D03*
X305547D02*
D03*
D21*
X133031Y46500D02*
D03*
X136969D02*
D03*
X133031Y56500D02*
D03*
X136969D02*
D03*
X310032Y41000D02*
D03*
X313968D02*
D03*
X310032Y51000D02*
D03*
X313968D02*
D03*
X310032Y61000D02*
D03*
X313968D02*
D03*
X297031Y72500D02*
D03*
X300969D02*
D03*
X227437Y143000D02*
D03*
X223500D02*
D03*
X133031Y66500D02*
D03*
X136969D02*
D03*
X87000Y76500D02*
D03*
X90937D02*
D03*
D22*
X83000Y189500D02*
D03*
X75520D02*
D03*
X75260Y165000D02*
D03*
X82740D02*
D03*
X263760Y72000D02*
D03*
X271240D02*
D03*
X230240Y182500D02*
D03*
X222760D02*
D03*
X230240Y163500D02*
D03*
X222760D02*
D03*
X305760Y145500D02*
D03*
X313240D02*
D03*
X313240Y183000D02*
D03*
X305760D02*
D03*
X121760Y146000D02*
D03*
X129240D02*
D03*
X183020Y144500D02*
D03*
X190500D02*
D03*
D23*
X131000Y182600D02*
D03*
D24*
X121900Y157400D02*
D03*
X131000D02*
D03*
X140100D02*
D03*
D25*
X245000Y71000D02*
D03*
X245165Y66000D02*
D03*
Y61000D02*
D03*
Y56000D02*
D03*
Y51000D02*
D03*
Y46000D02*
D03*
Y41000D02*
D03*
X222835D02*
D03*
Y46000D02*
D03*
Y51000D02*
D03*
Y56000D02*
D03*
Y61000D02*
D03*
Y66000D02*
D03*
Y71000D02*
D03*
X41335Y76500D02*
D03*
Y71500D02*
D03*
Y66500D02*
D03*
Y61500D02*
D03*
Y56500D02*
D03*
Y51500D02*
D03*
Y46500D02*
D03*
X63665D02*
D03*
Y51500D02*
D03*
Y56500D02*
D03*
Y61500D02*
D03*
Y66500D02*
D03*
Y71500D02*
D03*
X63500Y76500D02*
D03*
D26*
X282130Y159000D02*
D03*
Y164000D02*
D03*
Y169000D02*
D03*
Y174000D02*
D03*
X260870D02*
D03*
Y169000D02*
D03*
Y164000D02*
D03*
Y159000D02*
D03*
D27*
X164000Y127490D02*
D03*
Y120010D02*
D03*
M02*
