G04*
G04 #@! TF.GenerationSoftware,Altium Limited,Altium Designer,22.1.2 (22)*
G04*
G04 Layer_Color=32896*
%FSLAX25Y25*%
%MOIN*%
G70*
G04*
G04 #@! TF.SameCoordinates,52BC5A9B-E7CF-49AA-A5AC-D027EE08C1C4*
G04*
G04*
G04 #@! TF.FilePolarity,Positive*
G04*
G01*
G75*
G36*
X110900Y115645D02*
X108739D01*
Y113483D01*
X106578D01*
Y111322D01*
X110900D01*
Y109161D01*
X113061D01*
Y107000D01*
X110900D01*
Y109161D01*
X108739D01*
Y107000D01*
X110900D01*
Y104839D01*
X113061D01*
Y100517D01*
X117383D01*
Y98356D01*
X115222D01*
Y96194D01*
X117383D01*
Y94033D01*
X119544D01*
Y91872D01*
X121705D01*
Y89711D01*
X119544D01*
Y87550D01*
X121705D01*
Y87204D01*
Y87118D01*
Y85389D01*
X123867D01*
Y83228D01*
X126028D01*
Y81067D01*
X123867D01*
Y76744D01*
X128189D01*
Y74583D01*
X130350D01*
Y68100D01*
X128189D01*
Y65939D01*
X126028D01*
Y68100D01*
X119544D01*
Y70261D01*
X117383D01*
Y72422D01*
X113061D01*
Y70261D01*
X117383D01*
Y68100D01*
X119544D01*
Y65939D01*
X117383D01*
Y68100D01*
X115222D01*
Y65939D01*
X117383D01*
Y63778D01*
X115222D01*
Y65939D01*
X113061D01*
Y68100D01*
X110900D01*
Y65939D01*
X113061D01*
Y65852D01*
Y63778D01*
X110900D01*
Y65939D01*
X106578D01*
Y70261D01*
X110900D01*
Y74583D01*
X106578D01*
Y76744D01*
X104417D01*
Y78906D01*
X106578D01*
Y81067D01*
X100094D01*
Y85389D01*
X102256D01*
Y83228D01*
X104417D01*
Y87550D01*
X102256D01*
Y89711D01*
X104417D01*
Y91872D01*
X97933D01*
Y89711D01*
X95772D01*
Y91872D01*
X91450D01*
Y98356D01*
X89289D01*
Y100517D01*
X87128D01*
Y102678D01*
X84967D01*
Y104839D01*
X82806D01*
Y107000D01*
X78483D01*
Y111322D01*
X76322D01*
Y113483D01*
X74161D01*
Y117806D01*
X78483D01*
Y115904D01*
Y115817D01*
Y115645D01*
X80644D01*
Y114866D01*
Y114780D01*
Y113483D01*
X78483D01*
Y115645D01*
X76322D01*
Y113483D01*
X78483D01*
Y111322D01*
X80644D01*
Y109161D01*
X82806D01*
Y111322D01*
X84967D01*
Y104839D01*
X87128D01*
Y102678D01*
X89289D01*
Y100517D01*
X91450D01*
Y98356D01*
X93611D01*
Y94033D01*
X104417D01*
Y91872D01*
X108739D01*
Y89711D01*
X106578D01*
Y87550D01*
X108739D01*
Y86772D01*
Y86686D01*
Y85389D01*
X113061D01*
Y87550D01*
X117383D01*
Y85389D01*
X119544D01*
Y78906D01*
X121705D01*
Y85389D01*
X119544D01*
Y87550D01*
X117383D01*
Y89711D01*
X110900D01*
Y91872D01*
X108739D01*
Y94033D01*
X104417D01*
Y96194D01*
X106578D01*
Y100517D01*
X108739D01*
Y102678D01*
X106578D01*
Y104839D01*
X104417D01*
Y98356D01*
X102256D01*
Y100517D01*
X100094D01*
Y98356D01*
X102256D01*
Y96194D01*
X100094D01*
Y98356D01*
X97933D01*
Y96194D01*
X95772D01*
Y102678D01*
X93611D01*
Y109161D01*
X89289D01*
Y111322D01*
X87128D01*
Y115645D01*
X84967D01*
Y117806D01*
X87128D01*
Y115645D01*
X91450D01*
Y113483D01*
X89289D01*
Y111322D01*
X93611D01*
Y110112D01*
Y110026D01*
Y109161D01*
X95772D01*
Y114175D01*
Y114261D01*
Y117806D01*
X97933D01*
Y115645D01*
X106578D01*
Y117806D01*
X110900D01*
Y115645D01*
D02*
G37*
G36*
X93611D02*
X91450D01*
Y115731D01*
Y117806D01*
X93611D01*
Y115645D01*
D02*
G37*
G36*
X69839Y113483D02*
X72000D01*
Y111322D01*
X74161D01*
Y107000D01*
X76322D01*
Y104839D01*
X78483D01*
Y102678D01*
X80644D01*
Y104839D01*
X82806D01*
Y96194D01*
X87128D01*
Y94033D01*
X82806D01*
Y96194D01*
X78483D01*
Y98356D01*
X76322D01*
Y98961D01*
Y99047D01*
Y104839D01*
X74161D01*
Y96194D01*
X72000D01*
Y107000D01*
X69839D01*
Y102678D01*
X67678D01*
Y107000D01*
X63356D01*
Y104839D01*
X65517D01*
Y102678D01*
X67678D01*
Y100517D01*
X69839D01*
Y95935D01*
Y95849D01*
Y91872D01*
X74161D01*
Y89711D01*
X65517D01*
Y91872D01*
X63356D01*
Y94033D01*
X65517D01*
Y91872D01*
X67678D01*
Y98356D01*
X63356D01*
Y100517D01*
X61194D01*
Y102678D01*
X59033D01*
Y104839D01*
X61194D01*
Y102678D01*
X63356D01*
Y104839D01*
X61194D01*
Y113483D01*
X65517D01*
Y109161D01*
X72000D01*
Y111322D01*
X69839D01*
Y112965D01*
Y113051D01*
Y113483D01*
X65517D01*
Y115645D01*
X59033D01*
Y117806D01*
X65517D01*
Y115645D01*
X67678D01*
Y117806D01*
X69839D01*
Y113483D01*
D02*
G37*
G36*
X130350Y102678D02*
X115222D01*
Y110458D01*
Y110544D01*
Y117806D01*
X130350D01*
Y102678D01*
D02*
G37*
G36*
X56872D02*
X41744D01*
Y117806D01*
X56872D01*
Y102678D01*
D02*
G37*
G36*
X91450D02*
X93611D01*
Y101035D01*
Y100949D01*
Y100517D01*
X91450D01*
Y102678D01*
X89289D01*
Y104839D01*
X91450D01*
Y102678D01*
D02*
G37*
G36*
X126028Y98356D02*
X121705D01*
Y100517D01*
X126028D01*
Y98356D01*
D02*
G37*
G36*
X61194Y100257D02*
Y100171D01*
Y98356D01*
X63356D01*
Y96194D01*
X59033D01*
Y98356D01*
X56872D01*
Y96194D01*
X50389D01*
Y100517D01*
X52550D01*
Y98356D01*
X54711D01*
Y100517D01*
X61194D01*
Y100257D01*
D02*
G37*
G36*
X89289Y96194D02*
X87128D01*
Y98356D01*
X89289D01*
Y96194D01*
D02*
G37*
G36*
X121705D02*
X123867D01*
Y94033D01*
X128189D01*
Y91872D01*
X130350D01*
Y89711D01*
X128189D01*
Y91872D01*
X121705D01*
Y96194D01*
X119544D01*
Y98356D01*
X121705D01*
Y96194D01*
D02*
G37*
G36*
X78483Y94033D02*
X82806D01*
Y91872D01*
X80644D01*
Y89711D01*
X78483D01*
Y91872D01*
X76322D01*
Y95935D01*
Y96022D01*
Y96194D01*
X78483D01*
Y94033D01*
D02*
G37*
G36*
X61194Y92132D02*
Y92045D01*
Y91872D01*
X63356D01*
Y89711D01*
X61194D01*
Y91354D01*
Y91440D01*
Y91872D01*
X59033D01*
Y94033D01*
X61194D01*
Y92132D01*
D02*
G37*
G36*
X87128Y89711D02*
X91450D01*
Y87550D01*
X87128D01*
Y89711D01*
X84967D01*
Y90662D01*
Y90749D01*
Y91872D01*
X87128D01*
Y89711D01*
D02*
G37*
G36*
X52550Y91872D02*
X54711D01*
Y89711D01*
X56872D01*
Y85043D01*
Y84957D01*
Y83228D01*
X54711D01*
Y85389D01*
X52550D01*
Y87550D01*
X54711D01*
Y89711D01*
X52550D01*
Y91872D01*
X50389D01*
Y91959D01*
Y92045D01*
Y94033D01*
X52550D01*
Y91872D01*
D02*
G37*
G36*
X43905Y85389D02*
X46067D01*
Y83314D01*
Y83228D01*
X41744D01*
Y89711D01*
X43905D01*
Y85389D01*
D02*
G37*
G36*
X128189Y87550D02*
X130350D01*
Y86080D01*
Y85994D01*
Y78906D01*
X128189D01*
Y85389D01*
X123867D01*
Y87550D01*
X126028D01*
Y89711D01*
X128189D01*
Y87550D01*
D02*
G37*
G36*
X48228Y94033D02*
X46067D01*
Y91872D01*
X50389D01*
Y85389D01*
X52550D01*
Y81067D01*
X54711D01*
Y78906D01*
X52550D01*
Y81067D01*
X50389D01*
Y83228D01*
X48228D01*
Y87550D01*
X46067D01*
Y89452D01*
Y89538D01*
Y89711D01*
X43905D01*
Y96194D01*
X41744D01*
Y98356D01*
X48228D01*
Y94033D01*
D02*
G37*
G36*
X65517Y70261D02*
X61194D01*
Y72422D01*
X63356D01*
Y74583D01*
X65517D01*
Y70261D01*
D02*
G37*
G36*
X48228Y78906D02*
X52550D01*
Y76744D01*
X54711D01*
Y74583D01*
X59033D01*
Y68100D01*
X63356D01*
Y65939D01*
X67678D01*
Y63778D01*
X72000D01*
Y61617D01*
X69839D01*
Y59456D01*
X63356D01*
Y57294D01*
X65517D01*
Y55133D01*
X63356D01*
Y52972D01*
X61194D01*
Y55133D01*
X59033D01*
Y57294D01*
X56872D01*
Y59456D01*
X54711D01*
Y52972D01*
X61194D01*
Y50811D01*
X65517D01*
Y52972D01*
X67678D01*
Y50811D01*
X74161D01*
Y48650D01*
X72000D01*
Y46489D01*
X69839D01*
Y42167D01*
X74161D01*
Y44328D01*
X76322D01*
Y40006D01*
X78483D01*
Y37844D01*
X76322D01*
Y40006D01*
X69839D01*
Y42167D01*
X65517D01*
Y44328D01*
X67678D01*
Y48650D01*
X65517D01*
Y46489D01*
X63356D01*
Y48650D01*
X61194D01*
Y50811D01*
X56872D01*
Y48650D01*
X61194D01*
Y44328D01*
X63356D01*
Y42167D01*
X65517D01*
Y35683D01*
X67678D01*
Y33522D01*
X72000D01*
Y35683D01*
X69839D01*
Y37844D01*
X72000D01*
Y35683D01*
X74161D01*
Y31361D01*
X72000D01*
Y29200D01*
X67678D01*
Y33522D01*
X65517D01*
Y29200D01*
X59033D01*
Y33522D01*
X61194D01*
Y31361D01*
X63356D01*
Y33522D01*
X61194D01*
Y37844D01*
X52550D01*
Y35683D01*
X54711D01*
Y33522D01*
X56872D01*
Y31361D01*
X54711D01*
Y33522D01*
X52550D01*
Y35683D01*
X48228D01*
Y37844D01*
X46067D01*
Y35683D01*
X48228D01*
Y33522D01*
X52550D01*
Y31361D01*
X48228D01*
Y33522D01*
X46067D01*
Y33782D01*
Y33868D01*
Y35683D01*
X43905D01*
Y33522D01*
X46067D01*
Y29200D01*
X43905D01*
Y32485D01*
Y32571D01*
Y33522D01*
X41744D01*
Y40006D01*
X50389D01*
Y42167D01*
X48228D01*
Y44328D01*
X50389D01*
Y46489D01*
X46067D01*
Y48650D01*
X43905D01*
Y46489D01*
X46067D01*
Y42167D01*
X43905D01*
Y44328D01*
X41744D01*
Y50811D01*
X46067D01*
Y52972D01*
X48228D01*
Y61617D01*
X46067D01*
Y59456D01*
X41744D01*
Y63778D01*
X43905D01*
Y70261D01*
X41744D01*
Y74583D01*
X43905D01*
Y72422D01*
X46067D01*
Y70261D01*
X48228D01*
Y72422D01*
X46067D01*
Y74583D01*
X43905D01*
Y76744D01*
X46067D01*
Y78906D01*
X43905D01*
Y81067D01*
X48228D01*
Y78906D01*
D02*
G37*
G36*
X67678Y85389D02*
X65517D01*
Y81067D01*
X67678D01*
Y76831D01*
Y76744D01*
X69839D01*
Y81067D01*
X72000D01*
Y83228D01*
X69839D01*
Y85389D01*
X72000D01*
Y86945D01*
X94130D01*
Y86858D01*
X94216D01*
Y86772D01*
X94303D01*
Y86686D01*
X94389D01*
Y86599D01*
X94476D01*
Y86513D01*
X94562D01*
Y86426D01*
X94648D01*
Y86340D01*
X94735D01*
Y86253D01*
X94821D01*
Y86167D01*
X94908D01*
Y86080D01*
X94994D01*
Y85994D01*
X95081D01*
Y85908D01*
X95167D01*
Y85821D01*
X95253D01*
Y85735D01*
X95340D01*
Y85648D01*
X95426D01*
Y85562D01*
X95513D01*
Y85475D01*
X95599D01*
Y85389D01*
X95686D01*
Y85302D01*
X95772D01*
Y85216D01*
X95859D01*
Y85130D01*
X95945D01*
Y85043D01*
X96032D01*
Y84957D01*
X96118D01*
Y84870D01*
X96204D01*
Y84784D01*
X96291D01*
Y84697D01*
X96377D01*
Y84611D01*
X96464D01*
Y84525D01*
X96550D01*
Y84438D01*
X96637D01*
Y84352D01*
X96723D01*
Y84265D01*
X96810D01*
Y84179D01*
X96896D01*
Y84092D01*
X96982D01*
Y84006D01*
X97069D01*
Y83919D01*
X97155D01*
Y83833D01*
X97242D01*
Y83746D01*
X97328D01*
Y83660D01*
X97415D01*
Y83574D01*
X97501D01*
Y83487D01*
X97588D01*
Y83401D01*
X97674D01*
Y83314D01*
X97760D01*
Y83228D01*
X97847D01*
Y83141D01*
X97933D01*
Y83055D01*
X98020D01*
Y82968D01*
X98106D01*
Y82882D01*
X98193D01*
Y82796D01*
X98279D01*
Y82709D01*
X98365D01*
Y82623D01*
X98452D01*
Y82536D01*
X98538D01*
Y82450D01*
X98625D01*
Y82363D01*
X98711D01*
Y82277D01*
X98798D01*
Y82190D01*
X98884D01*
Y82104D01*
X98971D01*
Y82018D01*
X99057D01*
Y81931D01*
X99144D01*
Y81845D01*
X99230D01*
Y81758D01*
X99316D01*
Y81672D01*
X99403D01*
Y81585D01*
X99489D01*
Y81499D01*
X99576D01*
Y81413D01*
X99662D01*
Y81326D01*
X99749D01*
Y81240D01*
X99835D01*
Y81153D01*
X99922D01*
Y80980D01*
X100094D01*
Y74583D01*
X106578D01*
Y72422D01*
X100094D01*
Y65939D01*
X102256D01*
Y61617D01*
X106578D01*
Y59456D01*
X100094D01*
Y60147D01*
X78051D01*
Y60234D01*
X77965D01*
Y60320D01*
X77878D01*
Y60406D01*
X77792D01*
Y60493D01*
X77705D01*
Y60579D01*
X77619D01*
Y60666D01*
X77532D01*
Y60752D01*
X77446D01*
Y60839D01*
X77360D01*
Y60925D01*
X77273D01*
Y61012D01*
X77187D01*
Y61098D01*
X77100D01*
Y61185D01*
X77014D01*
Y61271D01*
X76927D01*
Y61357D01*
X76841D01*
Y61444D01*
X76754D01*
Y61530D01*
X76668D01*
Y61617D01*
X76582D01*
Y61703D01*
X76495D01*
Y61790D01*
X76409D01*
Y61876D01*
X76322D01*
Y61962D01*
X76236D01*
Y62049D01*
X76149D01*
Y62135D01*
X76063D01*
Y62222D01*
X75976D01*
Y62308D01*
X75890D01*
Y62395D01*
X75804D01*
Y62481D01*
X75717D01*
Y62568D01*
X75631D01*
Y62654D01*
X75544D01*
Y62740D01*
X75458D01*
Y62827D01*
X75371D01*
Y62913D01*
X75285D01*
Y63000D01*
X75198D01*
Y63086D01*
X75112D01*
Y63173D01*
X75025D01*
Y63259D01*
X74939D01*
Y63346D01*
X74853D01*
Y63432D01*
X74766D01*
Y63518D01*
X74680D01*
Y63605D01*
X74593D01*
Y63691D01*
X74507D01*
Y63778D01*
X74420D01*
Y63864D01*
X74334D01*
Y63951D01*
X74248D01*
Y64037D01*
X74161D01*
Y64124D01*
X74075D01*
Y64210D01*
X73988D01*
Y64297D01*
X73902D01*
Y64383D01*
X73815D01*
Y64469D01*
X73729D01*
Y64556D01*
X73642D01*
Y64642D01*
X73556D01*
Y64729D01*
X73470D01*
Y64815D01*
X73383D01*
Y64902D01*
X73297D01*
Y64988D01*
X73210D01*
Y65074D01*
X73124D01*
Y65161D01*
X73037D01*
Y65247D01*
X72951D01*
Y65334D01*
X72864D01*
Y65420D01*
X72778D01*
Y65507D01*
X72692D01*
Y65593D01*
X72605D01*
Y65680D01*
X72519D01*
Y65766D01*
X72432D01*
Y65852D01*
X72346D01*
Y65939D01*
X72259D01*
Y66025D01*
X72173D01*
Y66112D01*
X72086D01*
Y66198D01*
X72000D01*
Y65939D01*
X69839D01*
Y68100D01*
X67678D01*
Y72422D01*
X69839D01*
Y68100D01*
X72000D01*
Y72422D01*
X69839D01*
Y74583D01*
X67678D01*
Y76744D01*
X65517D01*
Y81067D01*
X61194D01*
Y78906D01*
X59033D01*
Y76744D01*
X61194D01*
Y76658D01*
Y76572D01*
Y74583D01*
X59033D01*
Y76744D01*
X56872D01*
Y81067D01*
X59033D01*
Y85389D01*
X63356D01*
Y87118D01*
Y87204D01*
Y87550D01*
X67678D01*
Y85389D01*
D02*
G37*
G36*
X104417Y65939D02*
X102256D01*
Y70261D01*
X104417D01*
Y65939D01*
D02*
G37*
G36*
X126028Y63778D02*
X121705D01*
Y65334D01*
Y65420D01*
Y65939D01*
X126028D01*
Y63778D01*
D02*
G37*
G36*
X121705Y61617D02*
X123867D01*
Y59456D01*
X126028D01*
Y61617D01*
X130350D01*
Y59456D01*
X128189D01*
Y57294D01*
X130350D01*
Y55133D01*
X128189D01*
Y56689D01*
Y56776D01*
Y57294D01*
X123867D01*
Y55133D01*
X128189D01*
Y52972D01*
X130350D01*
Y50811D01*
X128189D01*
Y51503D01*
Y51589D01*
Y52972D01*
X123867D01*
Y50811D01*
X126028D01*
Y48650D01*
X128189D01*
Y46489D01*
X126028D01*
Y48650D01*
X121705D01*
Y46489D01*
X113061D01*
Y43896D01*
Y43809D01*
Y42167D01*
X110900D01*
Y44328D01*
X106578D01*
Y46489D01*
X104417D01*
Y48650D01*
X93611D01*
Y46489D01*
X95772D01*
Y44328D01*
X91450D01*
Y42167D01*
X89289D01*
Y40006D01*
X93611D01*
Y37844D01*
X100094D01*
Y35683D01*
X97933D01*
Y33522D01*
X102256D01*
Y31361D01*
X104417D01*
Y29200D01*
X100094D01*
Y31361D01*
X97933D01*
Y33522D01*
X95772D01*
Y35683D01*
X93611D01*
Y37844D01*
X89289D01*
Y40006D01*
X84967D01*
Y37844D01*
X87128D01*
Y35683D01*
X89289D01*
Y33522D01*
X91450D01*
Y31361D01*
X93611D01*
Y29200D01*
X84967D01*
Y31361D01*
X82806D01*
Y33522D01*
X84967D01*
Y35683D01*
X80644D01*
Y37844D01*
X82806D01*
Y42167D01*
X80644D01*
Y44328D01*
X82806D01*
Y42167D01*
X84967D01*
Y44328D01*
X82806D01*
Y48650D01*
X80644D01*
Y50811D01*
X78483D01*
Y48650D01*
X76322D01*
Y50811D01*
X74161D01*
Y52972D01*
X80644D01*
Y57294D01*
X82806D01*
Y59456D01*
X84967D01*
Y52972D01*
X89289D01*
Y50811D01*
X87128D01*
Y48650D01*
X91450D01*
Y52972D01*
X93611D01*
Y50811D01*
X95772D01*
Y52972D01*
X93611D01*
Y57294D01*
X91450D01*
Y59456D01*
X95772D01*
Y52972D01*
X97933D01*
Y50811D01*
X100094D01*
Y55133D01*
X97933D01*
Y59456D01*
X100094D01*
Y57294D01*
X113061D01*
Y50811D01*
X106578D01*
Y52972D01*
X102256D01*
Y50811D01*
X104417D01*
Y48650D01*
X106578D01*
Y46489D01*
X108739D01*
Y48650D01*
X119544D01*
Y50811D01*
X121705D01*
Y55133D01*
X119544D01*
Y57294D01*
X117383D01*
Y59456D01*
X115222D01*
Y57294D01*
X117383D01*
Y56430D01*
Y56344D01*
Y55133D01*
X115222D01*
Y57294D01*
X113061D01*
Y61617D01*
X117383D01*
Y59456D01*
X119544D01*
Y63778D01*
X121705D01*
Y61617D01*
D02*
G37*
G36*
X110900Y61357D02*
Y61271D01*
Y59456D01*
X108739D01*
Y63778D01*
X110900D01*
Y61357D01*
D02*
G37*
G36*
X76322Y58764D02*
Y58678D01*
Y57294D01*
X74161D01*
Y59456D01*
X76322D01*
Y58764D01*
D02*
G37*
G36*
X91450Y55133D02*
X89289D01*
Y57294D01*
X91450D01*
Y55133D01*
D02*
G37*
G36*
X74161D02*
X72000D01*
Y57294D01*
X74161D01*
Y55133D01*
D02*
G37*
G36*
X43905D02*
X41744D01*
Y56171D01*
Y56257D01*
Y57294D01*
X43905D01*
Y55133D01*
D02*
G37*
G36*
X117383Y50811D02*
X115222D01*
Y52972D01*
X117383D01*
Y50811D01*
D02*
G37*
G36*
X100094Y44328D02*
X97933D01*
Y46489D01*
X100094D01*
Y44328D01*
D02*
G37*
G36*
X104417Y42167D02*
X110900D01*
Y37844D01*
X113061D01*
Y33522D01*
X110900D01*
Y34127D01*
Y34214D01*
Y35683D01*
X108739D01*
Y37844D01*
X104417D01*
Y35683D01*
X106578D01*
Y33522D01*
X110900D01*
Y29200D01*
X106578D01*
Y33522D01*
X104417D01*
Y35683D01*
X102256D01*
Y37844D01*
X100094D01*
Y40006D01*
X97933D01*
Y40957D01*
Y41043D01*
Y42167D01*
X100094D01*
Y40006D01*
X102256D01*
Y46489D01*
X104417D01*
Y42167D01*
D02*
G37*
G36*
X80644Y33522D02*
X78483D01*
Y35683D01*
X80644D01*
Y33522D01*
D02*
G37*
G36*
X78483Y31361D02*
X76322D01*
Y32485D01*
Y32571D01*
Y33522D01*
X78483D01*
Y31361D01*
D02*
G37*
G36*
X130350Y29200D02*
X115222D01*
Y31534D01*
Y31620D01*
Y44328D01*
X130350D01*
Y29200D01*
D02*
G37*
G36*
X95772Y31361D02*
X97933D01*
Y29200D01*
X95772D01*
Y31275D01*
Y31361D01*
X93611D01*
Y31448D01*
Y31534D01*
Y33522D01*
X95772D01*
Y31361D01*
D02*
G37*
%LPC*%
G36*
X100094Y113483D02*
X97933D01*
Y109161D01*
X102256D01*
Y107000D01*
X106578D01*
Y109161D01*
X102256D01*
Y111322D01*
X100094D01*
Y113483D01*
D02*
G37*
G36*
X110900Y104839D02*
X108739D01*
Y102678D01*
X110900D01*
Y104839D01*
D02*
G37*
G36*
X102256Y107000D02*
X100094D01*
Y102678D01*
X102256D01*
Y103974D01*
Y104061D01*
Y107000D01*
D02*
G37*
G36*
X97933D02*
X95772D01*
Y102678D01*
X97933D01*
Y107000D01*
D02*
G37*
G36*
X113061Y98356D02*
X108739D01*
Y97318D01*
Y97232D01*
Y96194D01*
X110900D01*
Y94033D01*
X113061D01*
Y91872D01*
X117383D01*
Y94033D01*
X113061D01*
Y98356D01*
D02*
G37*
G36*
X117383Y85389D02*
X115222D01*
Y83228D01*
X117383D01*
Y85389D01*
D02*
G37*
G36*
X108739D02*
X106578D01*
Y81067D01*
X113061D01*
Y78906D01*
X108739D01*
Y76744D01*
X113061D01*
Y74583D01*
X123867D01*
Y72422D01*
X126028D01*
Y70261D01*
X128189D01*
Y74583D01*
X123867D01*
Y76744D01*
X115222D01*
Y78906D01*
X117383D01*
Y81067D01*
X115222D01*
Y81845D01*
Y81931D01*
Y83228D01*
X108739D01*
Y85389D01*
D02*
G37*
G36*
X80644Y100517D02*
X78483D01*
Y98356D01*
X80644D01*
Y100517D01*
D02*
G37*
G36*
X128102Y115558D02*
X117470D01*
Y104925D01*
X128102D01*
Y115558D01*
D02*
G37*
%LPD*%
G36*
X126028Y109421D02*
Y109334D01*
Y107000D01*
X119544D01*
Y113483D01*
X126028D01*
Y109421D01*
D02*
G37*
%LPC*%
G36*
X54625Y115558D02*
X43992D01*
Y104925D01*
X54625D01*
Y115558D01*
D02*
G37*
%LPD*%
G36*
X52550Y107000D02*
X46067D01*
Y113483D01*
X52550D01*
Y107000D01*
D02*
G37*
%LPC*%
G36*
Y76744D02*
X50389D01*
Y74583D01*
X52550D01*
Y76744D01*
D02*
G37*
G36*
X50389Y74583D02*
X48228D01*
Y72422D01*
X50389D01*
Y74583D01*
D02*
G37*
G36*
X56872Y70261D02*
X54711D01*
Y68100D01*
X56872D01*
Y65939D01*
X54711D01*
Y66717D01*
Y66803D01*
Y68100D01*
X46067D01*
Y63778D01*
X48228D01*
Y65939D01*
X50389D01*
Y61617D01*
X54711D01*
Y63778D01*
X56872D01*
Y61617D01*
X59033D01*
Y63518D01*
Y63605D01*
Y63778D01*
X63356D01*
Y61617D01*
X67678D01*
Y63778D01*
X63356D01*
Y65939D01*
X59033D01*
Y68100D01*
X56872D01*
Y70261D01*
D02*
G37*
G36*
X52550Y55133D02*
X50389D01*
Y52972D01*
X52550D01*
Y50811D01*
X54711D01*
Y52972D01*
X52550D01*
Y55133D01*
D02*
G37*
G36*
X59033Y46489D02*
X52550D01*
Y40006D01*
X59033D01*
Y46489D01*
D02*
G37*
G36*
X63356Y42167D02*
X61194D01*
Y37844D01*
X63356D01*
Y42167D01*
D02*
G37*
%LPD*%
G36*
X56872D02*
X54711D01*
Y44328D01*
X56872D01*
Y42167D01*
D02*
G37*
%LPC*%
G36*
X93957Y86858D02*
X72173D01*
Y86772D01*
X72086D01*
Y66285D01*
X72173D01*
Y66198D01*
X72259D01*
Y66112D01*
X72346D01*
Y66025D01*
X72432D01*
Y65939D01*
X72519D01*
Y65852D01*
X72605D01*
Y65766D01*
X72692D01*
Y65680D01*
X72778D01*
Y65593D01*
X72864D01*
Y65507D01*
X72951D01*
Y65420D01*
X73037D01*
Y65334D01*
X73124D01*
Y65247D01*
X73210D01*
Y65161D01*
X73297D01*
Y65074D01*
X73383D01*
Y64988D01*
X73470D01*
Y64902D01*
X73556D01*
Y64815D01*
X73642D01*
Y64729D01*
X73729D01*
Y64642D01*
X73815D01*
Y64556D01*
X73902D01*
Y64469D01*
X73988D01*
Y64383D01*
X74075D01*
Y64297D01*
X74161D01*
Y64210D01*
X74248D01*
Y64124D01*
X74334D01*
Y64037D01*
X74420D01*
Y63951D01*
X74507D01*
Y63864D01*
X74593D01*
Y63778D01*
X74680D01*
Y63691D01*
X74766D01*
Y63605D01*
X74853D01*
Y63518D01*
X74939D01*
Y63432D01*
X75025D01*
Y63346D01*
X75112D01*
Y63259D01*
X75198D01*
Y63173D01*
X75285D01*
Y63086D01*
X75371D01*
Y63000D01*
X75458D01*
Y62913D01*
X75544D01*
Y62827D01*
X75631D01*
Y62740D01*
X75717D01*
Y62654D01*
X75804D01*
Y62568D01*
X75890D01*
Y62481D01*
X75976D01*
Y62395D01*
X76063D01*
Y62308D01*
X76149D01*
Y62222D01*
X76236D01*
Y62135D01*
X76322D01*
Y62049D01*
X76409D01*
Y61962D01*
X76495D01*
Y61876D01*
X76582D01*
Y61790D01*
X76668D01*
Y61703D01*
X76754D01*
Y61617D01*
X76841D01*
Y61530D01*
X76927D01*
Y61444D01*
X77014D01*
Y61357D01*
X77100D01*
Y61271D01*
X77187D01*
Y61185D01*
X77273D01*
Y61098D01*
X77360D01*
Y61012D01*
X77446D01*
Y60925D01*
X77532D01*
Y60839D01*
X77619D01*
Y60752D01*
X77705D01*
Y60666D01*
X77792D01*
Y60579D01*
X77878D01*
Y60493D01*
X77965D01*
Y60406D01*
X78051D01*
Y60320D01*
X100008D01*
Y80807D01*
X99922D01*
Y80980D01*
X99835D01*
Y81067D01*
X99749D01*
Y81153D01*
X99662D01*
Y81240D01*
X99576D01*
Y81326D01*
X99489D01*
Y81413D01*
X99403D01*
Y81499D01*
X99316D01*
Y81585D01*
X99230D01*
Y81672D01*
X99144D01*
Y81758D01*
X99057D01*
Y81845D01*
X98971D01*
Y81931D01*
X98884D01*
Y82018D01*
X98798D01*
Y82104D01*
X98711D01*
Y82190D01*
X98625D01*
Y82277D01*
X98538D01*
Y82363D01*
X98452D01*
Y82450D01*
X98365D01*
Y82536D01*
X98279D01*
Y82623D01*
X98193D01*
Y82709D01*
X98106D01*
Y82796D01*
X98020D01*
Y82882D01*
X97933D01*
Y82968D01*
X97847D01*
Y83055D01*
X97760D01*
Y83141D01*
X97674D01*
Y83228D01*
X97588D01*
Y83314D01*
X97501D01*
Y83401D01*
X97415D01*
Y83487D01*
X97328D01*
Y83574D01*
X97242D01*
Y83660D01*
X97155D01*
Y83746D01*
X97069D01*
Y83833D01*
X96982D01*
Y83919D01*
X96896D01*
Y84006D01*
X96810D01*
Y84092D01*
X96723D01*
Y84179D01*
X96637D01*
Y84265D01*
X96550D01*
Y84352D01*
X96464D01*
Y84438D01*
X96377D01*
Y84525D01*
X96291D01*
Y84611D01*
X96204D01*
Y84697D01*
X96118D01*
Y84784D01*
X96032D01*
Y84870D01*
X95945D01*
Y84957D01*
X95859D01*
Y85043D01*
X95772D01*
Y85130D01*
X95686D01*
Y85216D01*
X95599D01*
Y85302D01*
X95513D01*
Y85389D01*
X95426D01*
Y85475D01*
X95340D01*
Y85562D01*
X95253D01*
Y85648D01*
X95167D01*
Y85735D01*
X95081D01*
Y85821D01*
X94994D01*
Y85908D01*
X94908D01*
Y85994D01*
X94821D01*
Y86080D01*
X94735D01*
Y86167D01*
X94648D01*
Y86253D01*
X94562D01*
Y86340D01*
X94476D01*
Y86426D01*
X94389D01*
Y86513D01*
X94303D01*
Y86599D01*
X94216D01*
Y86686D01*
X94130D01*
Y86772D01*
X93957D01*
Y86858D01*
D02*
G37*
%LPD*%
G36*
X93438Y85648D02*
X93525D01*
Y85562D01*
X93611D01*
Y85475D01*
X93698D01*
Y85389D01*
X93784D01*
Y85302D01*
X93870D01*
Y85216D01*
X93957D01*
Y85130D01*
X94043D01*
Y85043D01*
X94130D01*
Y84957D01*
X94216D01*
Y84870D01*
X94303D01*
Y84784D01*
X94389D01*
Y84697D01*
X94476D01*
Y84611D01*
X94562D01*
Y84525D01*
X94648D01*
Y84438D01*
X94735D01*
Y84352D01*
X94821D01*
Y84265D01*
X94908D01*
Y84179D01*
X94994D01*
Y84092D01*
X95081D01*
Y84006D01*
X95167D01*
Y83919D01*
X95253D01*
Y83833D01*
X95340D01*
Y83746D01*
X95426D01*
Y83660D01*
X95513D01*
Y83574D01*
X95599D01*
Y83487D01*
X95686D01*
Y83401D01*
X95772D01*
Y83314D01*
X95859D01*
Y83228D01*
X95945D01*
Y83141D01*
X96032D01*
Y83055D01*
X96118D01*
Y82968D01*
X96204D01*
Y82882D01*
X96291D01*
Y82796D01*
X96377D01*
Y82709D01*
X96464D01*
Y82623D01*
X96550D01*
Y82536D01*
X96637D01*
Y82450D01*
X96723D01*
Y82363D01*
X96810D01*
Y82277D01*
X96896D01*
Y82190D01*
X96982D01*
Y82104D01*
X97069D01*
Y82018D01*
X97155D01*
Y81931D01*
X97242D01*
Y81845D01*
X97328D01*
Y81758D01*
X97415D01*
Y81672D01*
X97501D01*
Y81585D01*
X97588D01*
Y81499D01*
X97674D01*
Y81413D01*
X97760D01*
Y81326D01*
X97847D01*
Y81240D01*
X97933D01*
Y81153D01*
X98020D01*
Y81067D01*
X98106D01*
Y80980D01*
X98193D01*
Y80894D01*
X98279D01*
Y80807D01*
X98365D01*
Y80721D01*
X98452D01*
Y80634D01*
X98538D01*
Y80548D01*
X98625D01*
Y80462D01*
X98711D01*
Y80375D01*
X98798D01*
Y61357D01*
X78743D01*
Y61444D01*
X78656D01*
Y61530D01*
X78570D01*
Y61617D01*
X78483D01*
Y61703D01*
X78397D01*
Y61790D01*
X78310D01*
Y61876D01*
X78224D01*
Y61962D01*
X78137D01*
Y62049D01*
X78051D01*
Y62135D01*
X77965D01*
Y62222D01*
X77878D01*
Y62308D01*
X77792D01*
Y62395D01*
X77705D01*
Y62481D01*
X77619D01*
Y62568D01*
X77532D01*
Y62654D01*
X77446D01*
Y62740D01*
X77360D01*
Y62827D01*
X77273D01*
Y62913D01*
X77187D01*
Y63000D01*
X77100D01*
Y63086D01*
X77014D01*
Y63173D01*
X76927D01*
Y63259D01*
X76841D01*
Y63346D01*
X76754D01*
Y63432D01*
X76668D01*
Y63518D01*
X76582D01*
Y63605D01*
X76495D01*
Y63691D01*
X76409D01*
Y63778D01*
X76322D01*
Y63864D01*
X76236D01*
Y63951D01*
X76149D01*
Y64037D01*
X76063D01*
Y64124D01*
X75976D01*
Y64210D01*
X75890D01*
Y64297D01*
X75804D01*
Y64383D01*
X75717D01*
Y64469D01*
X75631D01*
Y64556D01*
X75544D01*
Y64642D01*
X75458D01*
Y64729D01*
X75371D01*
Y64815D01*
X75285D01*
Y64902D01*
X75198D01*
Y64988D01*
X75112D01*
Y65074D01*
X75025D01*
Y65161D01*
X74939D01*
Y65247D01*
X74853D01*
Y65334D01*
X74766D01*
Y65420D01*
X74680D01*
Y65507D01*
X74593D01*
Y65593D01*
X74507D01*
Y65680D01*
X74420D01*
Y65766D01*
X74334D01*
Y65852D01*
X74248D01*
Y65939D01*
X74161D01*
Y66025D01*
X74075D01*
Y66112D01*
X73988D01*
Y66198D01*
X73902D01*
Y66285D01*
X73815D01*
Y66371D01*
X73729D01*
Y66458D01*
X73642D01*
Y66544D01*
X73556D01*
Y66630D01*
X73470D01*
Y66717D01*
X73383D01*
Y66803D01*
X73297D01*
Y85735D01*
X93438D01*
Y85648D01*
D02*
G37*
%LPC*%
G36*
X93265D02*
X73470D01*
Y85562D01*
X73383D01*
Y66890D01*
X73470D01*
Y66803D01*
X73556D01*
Y66717D01*
X73642D01*
Y66630D01*
X73729D01*
Y66544D01*
X73815D01*
Y66458D01*
X73902D01*
Y66371D01*
X73988D01*
Y66285D01*
X74075D01*
Y66198D01*
X74161D01*
Y66112D01*
X74248D01*
Y66025D01*
X74334D01*
Y65939D01*
X74420D01*
Y65852D01*
X74507D01*
Y65766D01*
X74593D01*
Y65680D01*
X74680D01*
Y65593D01*
X74766D01*
Y65507D01*
X74853D01*
Y65420D01*
X74939D01*
Y65334D01*
X75025D01*
Y65247D01*
X75112D01*
Y65161D01*
X75198D01*
Y65074D01*
X75285D01*
Y64988D01*
X75371D01*
Y64902D01*
X75458D01*
Y64815D01*
X75544D01*
Y64729D01*
X75631D01*
Y64642D01*
X75717D01*
Y64556D01*
X75804D01*
Y64469D01*
X75890D01*
Y64383D01*
X75976D01*
Y64297D01*
X76063D01*
Y64210D01*
X76149D01*
Y64124D01*
X76236D01*
Y64037D01*
X76322D01*
Y63951D01*
X76409D01*
Y63864D01*
X76495D01*
Y63778D01*
X76582D01*
Y63691D01*
X76668D01*
Y63605D01*
X76754D01*
Y63518D01*
X76841D01*
Y63432D01*
X76927D01*
Y63346D01*
X77014D01*
Y63259D01*
X77100D01*
Y63173D01*
X77187D01*
Y63086D01*
X77273D01*
Y63000D01*
X77360D01*
Y62913D01*
X77446D01*
Y62827D01*
X77532D01*
Y62740D01*
X77619D01*
Y62654D01*
X77705D01*
Y62568D01*
X77792D01*
Y62481D01*
X77878D01*
Y62395D01*
X77965D01*
Y62308D01*
X78051D01*
Y62222D01*
X78137D01*
Y62135D01*
X78224D01*
Y62049D01*
X78310D01*
Y61962D01*
X78397D01*
Y61876D01*
X78483D01*
Y61790D01*
X78570D01*
Y61703D01*
X78656D01*
Y61617D01*
X78743D01*
Y61530D01*
X98711D01*
Y80289D01*
X98625D01*
Y80375D01*
X98538D01*
Y80462D01*
X98452D01*
Y80548D01*
X98365D01*
Y80634D01*
X98279D01*
Y80721D01*
X98193D01*
Y80807D01*
X98106D01*
Y80894D01*
X98020D01*
Y80980D01*
X97933D01*
Y81067D01*
X97847D01*
Y81153D01*
X97760D01*
Y81240D01*
X97674D01*
Y81326D01*
X97588D01*
Y81413D01*
X97501D01*
Y81499D01*
X97415D01*
Y81585D01*
X97328D01*
Y81672D01*
X97242D01*
Y81758D01*
X97155D01*
Y81845D01*
X97069D01*
Y81931D01*
X96982D01*
Y82018D01*
X96896D01*
Y82104D01*
X96810D01*
Y82190D01*
X96723D01*
Y82277D01*
X96637D01*
Y82363D01*
X96550D01*
Y82450D01*
X96464D01*
Y82536D01*
X96377D01*
Y82623D01*
X96291D01*
Y82709D01*
X96204D01*
Y82796D01*
X96118D01*
Y82882D01*
X96032D01*
Y82968D01*
X95945D01*
Y83055D01*
X95859D01*
Y83141D01*
X95772D01*
Y83228D01*
X95686D01*
Y83314D01*
X95599D01*
Y83401D01*
X95513D01*
Y83487D01*
X95426D01*
Y83574D01*
X95340D01*
Y83660D01*
X95253D01*
Y83746D01*
X95167D01*
Y83833D01*
X95081D01*
Y83919D01*
X94994D01*
Y84006D01*
X94908D01*
Y84092D01*
X94821D01*
Y84179D01*
X94735D01*
Y84265D01*
X94648D01*
Y84352D01*
X94562D01*
Y84438D01*
X94476D01*
Y84525D01*
X94389D01*
Y84611D01*
X94303D01*
Y84697D01*
X94216D01*
Y84784D01*
X94130D01*
Y84870D01*
X94043D01*
Y84957D01*
X93957D01*
Y85043D01*
X93870D01*
Y85130D01*
X93784D01*
Y85216D01*
X93698D01*
Y85302D01*
X93611D01*
Y85389D01*
X93525D01*
Y85475D01*
X93438D01*
Y85562D01*
X93265D01*
Y85648D01*
D02*
G37*
%LPD*%
G36*
X91277Y79251D02*
Y79165D01*
Y67236D01*
X89548D01*
Y72941D01*
X86609D01*
Y72854D01*
X86263D01*
Y72768D01*
X86090D01*
Y72682D01*
X85918D01*
Y72595D01*
X85831D01*
Y72509D01*
X85658D01*
Y72422D01*
X85572D01*
Y72336D01*
X85485D01*
Y72249D01*
X85399D01*
Y72163D01*
X85312D01*
Y72076D01*
X85226D01*
Y71990D01*
X85140D01*
Y71817D01*
X85053D01*
Y71731D01*
X84967D01*
Y71644D01*
X84880D01*
Y71558D01*
X84794D01*
Y71385D01*
X84707D01*
Y71298D01*
X84621D01*
Y71212D01*
X84534D01*
Y71039D01*
X84448D01*
Y70953D01*
X84361D01*
Y70780D01*
X84275D01*
Y70693D01*
X84189D01*
Y70521D01*
X84102D01*
Y70434D01*
X84016D01*
Y70261D01*
X83929D01*
Y70175D01*
X83843D01*
Y70002D01*
X83756D01*
Y69915D01*
X83670D01*
Y69742D01*
X83584D01*
Y69656D01*
X83497D01*
Y69483D01*
X83411D01*
Y69310D01*
X83324D01*
Y69224D01*
X83238D01*
Y69051D01*
X83151D01*
Y68964D01*
X83065D01*
Y68792D01*
X82978D01*
Y68705D01*
X82892D01*
Y68532D01*
X82806D01*
Y68359D01*
X82719D01*
Y68273D01*
X82633D01*
Y68100D01*
X82546D01*
Y68014D01*
X82460D01*
Y67841D01*
X82373D01*
Y67754D01*
X82287D01*
Y67581D01*
X82200D01*
Y67409D01*
X82114D01*
Y67322D01*
X82028D01*
Y67236D01*
X79866D01*
Y67322D01*
X79953D01*
Y67409D01*
X80039D01*
Y67581D01*
X80126D01*
Y67754D01*
X80212D01*
Y67841D01*
X80299D01*
Y68014D01*
X80385D01*
Y68100D01*
X80472D01*
Y68273D01*
X80558D01*
Y68359D01*
X80644D01*
Y68532D01*
X80731D01*
Y68705D01*
X80817D01*
Y68792D01*
X80904D01*
Y68964D01*
X80990D01*
Y69051D01*
X81077D01*
Y69224D01*
X81163D01*
Y69310D01*
X81249D01*
Y69483D01*
X81336D01*
Y69570D01*
X81422D01*
Y69742D01*
X81509D01*
Y69915D01*
X81595D01*
Y70002D01*
X81682D01*
Y70175D01*
X81768D01*
Y70261D01*
X81855D01*
Y70434D01*
X81941D01*
Y70521D01*
X82028D01*
Y70693D01*
X82114D01*
Y70780D01*
X82200D01*
Y70953D01*
X82287D01*
Y71039D01*
X82373D01*
Y71212D01*
X82460D01*
Y71298D01*
X82546D01*
Y71471D01*
X82633D01*
Y71558D01*
X82719D01*
Y71644D01*
X82806D01*
Y71731D01*
X82892D01*
Y71817D01*
X82978D01*
Y71990D01*
X83065D01*
Y72076D01*
X83151D01*
Y72163D01*
X83238D01*
Y72249D01*
X83324D01*
Y72336D01*
X83411D01*
Y72422D01*
X83497D01*
Y72509D01*
X83584D01*
Y72595D01*
X83756D01*
Y72682D01*
X83843D01*
Y72768D01*
X84016D01*
Y72854D01*
X84189D01*
Y72941D01*
X84275D01*
Y73027D01*
X84448D01*
Y73114D01*
X84361D01*
Y73200D01*
X83929D01*
Y73287D01*
X83584D01*
Y73373D01*
X83324D01*
Y73460D01*
X83065D01*
Y73546D01*
X82892D01*
Y73632D01*
X82719D01*
Y73719D01*
X82546D01*
Y73805D01*
X82373D01*
Y73892D01*
X82287D01*
Y73978D01*
X82114D01*
Y74065D01*
X82028D01*
Y74151D01*
X81941D01*
Y74238D01*
X81855D01*
Y74324D01*
X81768D01*
Y74410D01*
X81682D01*
Y74497D01*
X81595D01*
Y74583D01*
X81509D01*
Y74756D01*
X81422D01*
Y74843D01*
X81336D01*
Y75016D01*
X81249D01*
Y75188D01*
X81163D01*
Y75448D01*
X81077D01*
Y75707D01*
X80990D01*
Y76139D01*
X80904D01*
Y77177D01*
X80990D01*
Y77609D01*
X81077D01*
Y77955D01*
X81163D01*
Y78128D01*
X81249D01*
Y78300D01*
X81336D01*
Y78473D01*
X81422D01*
Y78646D01*
X81509D01*
Y78733D01*
X81595D01*
Y78906D01*
X81682D01*
Y78992D01*
X81768D01*
Y79078D01*
X81855D01*
Y79165D01*
X81941D01*
Y79251D01*
X82028D01*
Y79338D01*
X82114D01*
Y79424D01*
X82200D01*
Y79511D01*
X82287D01*
Y79597D01*
X82460D01*
Y79684D01*
X82633D01*
Y79770D01*
X82806D01*
Y79856D01*
X82978D01*
Y79943D01*
X83324D01*
Y80029D01*
X83670D01*
Y80116D01*
X84361D01*
Y80202D01*
X91277D01*
Y79251D01*
D02*
G37*
%LPC*%
G36*
X89548Y78733D02*
X84534D01*
Y78646D01*
X84189D01*
Y78560D01*
X83929D01*
Y78473D01*
X83756D01*
Y78387D01*
X83584D01*
Y78300D01*
X83497D01*
Y78214D01*
X83324D01*
Y78128D01*
X83238D01*
Y78041D01*
X83151D01*
Y77955D01*
X83065D01*
Y77782D01*
X82978D01*
Y77695D01*
X82892D01*
Y77522D01*
X82806D01*
Y77263D01*
X82719D01*
Y76053D01*
X82806D01*
Y75794D01*
X82892D01*
Y75621D01*
X82978D01*
Y75534D01*
X83065D01*
Y75361D01*
X83151D01*
Y75275D01*
X83238D01*
Y75188D01*
X83324D01*
Y75102D01*
X83411D01*
Y75016D01*
X83497D01*
Y74929D01*
X83670D01*
Y74843D01*
X83843D01*
Y74756D01*
X84016D01*
Y74670D01*
X84275D01*
Y74583D01*
X84794D01*
Y74497D01*
X89548D01*
Y77782D01*
Y77868D01*
Y78733D01*
D02*
G37*
G36*
X110900Y55133D02*
X106578D01*
Y52972D01*
X110900D01*
Y55133D01*
D02*
G37*
G36*
X84967Y52972D02*
X82806D01*
Y50811D01*
X84967D01*
Y52972D01*
D02*
G37*
G36*
X87128Y48650D02*
X84967D01*
Y46489D01*
X87128D01*
Y48650D01*
D02*
G37*
G36*
X128102Y42080D02*
X117470D01*
Y31448D01*
X128102D01*
Y42080D01*
D02*
G37*
%LPD*%
G36*
X126028Y33522D02*
X119544D01*
Y40006D01*
X126028D01*
Y33522D01*
D02*
G37*
M02*
