M48
;Layer_Color=9474304
;FILE_FORMAT=2:5
INCH,LZ
;TYPE=PLATED
T1F00S00C0.01200
T2F00S00C0.01300
T4F00S00C0.04000
T5F00S00C0.04016
%
T01
X0214Y0041
X0314Y0046
Y0056
Y00665
X0276Y0072
X0214Y0061
X0234469Y0143
X0299Y0145
X0293Y0159
X0176Y01445
X0164Y0132
X01735Y00755
X01135Y01575
X007Y0165
X0088Y01955
T02
X0273548Y0163952
X0269452Y0169048
T04
X00165Y0017
X00265
X00365
X00465
X00725
X00825
X00925
X01025
X01265
X01365
X01465
X01565
X01945
X02045
X02145
X02245
X025
X026
X027
X028
X0305
X0315
X0325
X0335
X0336Y01495
Y01595
Y01695
Y01795
X01605Y0178
Y0168
Y0158
Y0148
X0045Y0139
X0035
X0025
X0015
T05
X00165Y00545
X01945
Y00645
X0198547Y0182
X0188547
X00165Y00645
M30
