G04*
G04 #@! TF.GenerationSoftware,Altium Limited,Altium Designer,22.1.2 (22)*
G04*
G04 Layer_Physical_Order=1*
G04 Layer_Color=255*
%FSLAX25Y25*%
%MOIN*%
G70*
G04*
G04 #@! TF.SameCoordinates,52BC5A9B-E7CF-49AA-A5AC-D027EE08C1C4*
G04*
G04*
G04 #@! TF.FilePolarity,Positive*
G04*
G01*
G75*
%ADD10C,0.02000*%
%ADD12C,0.00600*%
%ADD20R,0.03150X0.03150*%
%ADD21R,0.02362X0.02756*%
%ADD22R,0.03937X0.05709*%
%ADD23R,0.12200X0.06300*%
%ADD24R,0.03300X0.06300*%
%ADD25R,0.10433X0.02362*%
%ADD26R,0.13386X0.02362*%
%ADD27R,0.05709X0.03937*%
%ADD40C,0.07000*%
%ADD41C,0.06378*%
%ADD42O,0.07874X0.14961*%
%ADD43O,0.12992X0.07087*%
%ADD44C,0.02200*%
%ADD45C,0.02500*%
D10*
X85828Y84328D02*
Y126000D01*
X84172Y84328D02*
X85828D01*
Y126000D02*
X87328Y127500D01*
X82500Y86000D02*
X84172Y84328D01*
X82500Y86000D02*
Y125500D01*
X80000Y128000D02*
X82500Y125500D01*
X88000Y127500D02*
X89500Y126000D01*
Y85500D02*
X90672Y84328D01*
X92328D02*
X93500Y85500D01*
X89500D02*
Y126000D01*
X90672Y84328D02*
X92328D01*
X93500Y85500D02*
Y126828D01*
X87328Y127500D02*
X88000D01*
X269563Y164563D02*
X273437Y168437D01*
X261051Y159181D02*
X267828D01*
X269563Y160916D01*
Y164563D01*
X55672Y111250D02*
X57328D01*
X58500Y110078D01*
X51000Y98750D02*
Y113250D01*
X54500Y95250D02*
Y110078D01*
X53000Y115250D02*
X60500D01*
X51000Y113250D02*
X53000Y115250D01*
X51000Y98750D02*
X54500Y95250D01*
Y110078D02*
X55672Y111250D01*
X61328Y96578D02*
X62500Y97750D01*
X59672Y96578D02*
X61328D01*
X58500Y97750D02*
X59672Y96578D01*
X58500Y97750D02*
Y110078D01*
X13500Y85250D02*
Y126750D01*
X12328Y84078D02*
X13500Y85250D01*
X10000Y84750D02*
X10672Y84078D01*
X12328D01*
X10000Y84750D02*
Y127250D01*
X18599Y83901D02*
X20256D01*
X17500Y85000D02*
X18599Y83901D01*
X20256D02*
X21000Y84645D01*
Y126750D01*
X17500Y85000D02*
Y126750D01*
X27493Y83664D02*
X28500Y84672D01*
Y126750D01*
X25836Y83664D02*
X27493D01*
X25000Y84500D02*
X25836Y83664D01*
X25000Y84500D02*
Y126750D01*
X32000Y84593D02*
Y126250D01*
X34578Y83672D02*
X35500Y84593D01*
X32000D02*
X32922Y83672D01*
X35500Y84593D02*
Y125750D01*
X32922Y83672D02*
X34578D01*
X128172Y125172D02*
Y128000D01*
X127000Y124000D02*
X128172Y125172D01*
X130500Y128000D02*
X132000Y126500D01*
X124781Y126219D02*
X127000Y124000D01*
X128172Y128000D02*
X130500D01*
X123000Y126219D02*
X124781D01*
X115500Y96500D02*
Y126506D01*
X119000Y96000D02*
Y127006D01*
X115500Y126506D02*
X116672Y127678D01*
X118328D02*
X119000Y127006D01*
X116672Y127678D02*
X118328D01*
X97000Y86000D02*
Y127000D01*
X96000Y128000D02*
X97000Y127000D01*
X93500Y126828D02*
X94672Y128000D01*
X96000D01*
X198028Y159425D02*
Y160575D01*
X58336Y76319D02*
X86819D01*
X12181D02*
X46499D01*
X165500Y83000D02*
X166000D01*
X167500Y84500D01*
X164000D02*
X165500Y83000D01*
X156000Y85000D02*
X157172Y83828D01*
X158828D01*
X160000Y85000D01*
Y112500D01*
X161172Y113672D02*
X162828D01*
X164000Y112500D01*
X160000D02*
X161172Y113672D01*
X156000Y85000D02*
Y125500D01*
X164000Y84500D02*
Y112500D01*
X167500Y84500D02*
Y117396D01*
X164886Y120010D02*
X167500Y117396D01*
X164000Y120010D02*
X164886D01*
X150328Y83328D02*
X151500Y84500D01*
X147500D02*
X148672Y83328D01*
X150328D01*
X147500Y84500D02*
Y126500D01*
X86819Y76319D02*
X87000Y76500D01*
X6500Y82000D02*
X12181Y76319D01*
X46537Y76281D02*
X58298D01*
X58336Y76319D01*
X123000Y98000D02*
Y126219D01*
X151500Y84500D02*
Y126000D01*
X135500Y93500D02*
Y126000D01*
X143500Y86000D02*
Y125500D01*
X139500Y85000D02*
Y126000D01*
X132000Y96500D02*
Y126500D01*
X111500Y97500D02*
Y125891D01*
X101000Y86000D02*
Y125500D01*
X78000Y96500D02*
Y126000D01*
X74000Y101250D02*
Y110750D01*
X70500Y103250D02*
Y107250D01*
X66500Y101250D02*
Y106750D01*
X62500Y97750D02*
Y107750D01*
X42500Y84750D02*
Y126750D01*
X39000Y84422D02*
Y126250D01*
X46499Y76319D02*
X46537Y76281D01*
X6500Y82000D02*
Y126750D01*
X13500D02*
X15500Y128750D01*
X28500Y126750D02*
X30000Y128250D01*
X23000Y128750D02*
X25000Y126750D01*
X15500Y128750D02*
X17500Y126750D01*
X21000D02*
X23000Y128750D01*
X30000Y128250D02*
X32000Y126250D01*
X6500Y126750D02*
X8500Y128750D01*
X10000Y127250D01*
X164886Y120010D02*
X170510D01*
X186500Y136000D01*
X210000D01*
X169500Y148000D02*
X177000Y155500D01*
X160500Y148000D02*
X169500D01*
X177000Y155500D02*
Y175000D01*
X159147Y148000D02*
X160500D01*
X153500Y128000D02*
X156000Y125500D01*
X151500Y126000D02*
X153500Y128000D01*
X146000D02*
X147500Y126500D01*
X143500Y125500D02*
X146000Y128000D01*
X141000Y83500D02*
X143500Y86000D01*
X139500Y85000D02*
X141000Y83500D01*
X137500Y128000D02*
X139500Y126000D01*
X135500D02*
X137500Y128000D01*
X134500Y92500D02*
X135500Y93500D01*
X134500Y85500D02*
Y92500D01*
X132828Y83828D02*
X134500Y85500D01*
X130500Y84500D02*
X131172Y83828D01*
X132828D01*
X130500Y84500D02*
Y88000D01*
X129500Y89000D02*
X130500Y88000D01*
X127000Y83500D02*
Y86500D01*
X129500Y89000D01*
X123078Y85422D02*
X125000Y83500D01*
X127000D01*
X121422Y85422D02*
X123078D01*
X120000Y84000D02*
X121422Y85422D01*
X118000Y84000D02*
X120000D01*
X117000Y85000D02*
X118000Y84000D01*
X115000Y85000D02*
X117000D01*
X112000Y84000D02*
X114000D01*
X115000Y85000D01*
X110500Y85500D02*
X112000Y84000D01*
X110000Y85500D02*
X110500D01*
X108500Y84000D02*
X110000Y85500D01*
X107000Y84000D02*
X108500D01*
X104500Y86500D02*
X107000Y84000D01*
X104500Y86500D02*
Y94000D01*
X110172Y88328D01*
X111828D01*
X112000Y88500D01*
X124000D01*
X132000Y96500D01*
X109900Y127490D02*
X111500Y125891D01*
X108991Y127490D02*
X109900D01*
X108000Y126500D02*
X108991Y127490D01*
X108000Y124000D02*
Y126500D01*
X107500Y123500D02*
X108000Y124000D01*
X105000Y123500D02*
X107500D01*
X105000D02*
Y126500D01*
X103500Y128000D02*
X105000Y126500D01*
X101000Y125500D02*
X103500Y128000D01*
X113172Y95828D02*
X114828D01*
X115500Y96500D01*
X111500Y97500D02*
X113172Y95828D01*
X121000Y96000D02*
X123000Y98000D01*
X119000Y96000D02*
X121000D01*
X37500Y127750D02*
X39000Y126250D01*
X44500Y128250D02*
X46000Y126750D01*
X44000Y128250D02*
X44500D01*
X46000Y119750D02*
X49500Y123250D01*
X51000Y128250D02*
X51500D01*
X53000Y126750D01*
Y124750D02*
Y126750D01*
Y124750D02*
X54000Y123750D01*
X55000D01*
X58828Y128250D02*
X60000Y127078D01*
X61172Y123750D02*
X62500D01*
X67000Y120750D02*
Y126750D01*
X55000Y123750D02*
X56500Y125250D01*
X70000Y117750D02*
X70500Y118250D01*
X64500Y128250D02*
X65500D01*
X46000Y119750D02*
Y126750D01*
X69000Y110750D02*
X74000Y115750D01*
X42500Y126750D02*
X44000Y128250D01*
X47000Y84750D02*
X48500Y83250D01*
X56500Y125250D02*
Y126750D01*
X68500Y101250D02*
X70500Y103250D01*
Y107250D02*
X74000Y110750D01*
X57500Y84750D02*
X59328D01*
X50922Y84672D02*
X52578D01*
X49500Y126750D02*
X51000Y128250D01*
X66500Y101250D02*
X68500D01*
X70500Y118250D02*
Y126750D01*
X52578Y84672D02*
X54000Y83250D01*
X66078Y84672D02*
X67172Y83578D01*
X68717D02*
X70000Y84861D01*
X64422Y84672D02*
X66078D01*
X59328Y84750D02*
X60828Y83250D01*
X56000D02*
X57500Y84750D01*
X49500Y123250D02*
Y126750D01*
X63000Y83250D02*
X64422Y84672D01*
X60000Y124922D02*
X61172Y123750D01*
X56500Y126750D02*
X58000Y128250D01*
X72000D02*
X72500D01*
X70000Y84861D02*
Y88750D01*
X48500Y83250D02*
X49500D01*
X64500Y87750D02*
X72000Y95250D01*
X65500Y107750D02*
X66500Y106750D01*
X40172Y83250D02*
X41000D01*
X72500Y128250D02*
X74000Y126750D01*
X54000Y83250D02*
X56000D01*
X70000Y88750D02*
X72000Y90750D01*
X47000Y91250D02*
X50500Y87750D01*
X67000Y120750D02*
X70000Y117750D01*
X72000Y99250D02*
X74000Y101250D01*
X62500Y123750D02*
X63500Y124750D01*
Y127250D02*
X64500Y128250D01*
X60500Y115250D02*
X65000Y110750D01*
X50500Y87750D02*
X64500D01*
X47000Y84750D02*
Y91250D01*
X49500Y83250D02*
X50922Y84672D01*
X41000Y83250D02*
X42500Y84750D01*
X60000Y124922D02*
Y127078D01*
X63500Y124750D02*
Y127250D01*
X72000Y95250D02*
Y99250D01*
X70500Y126750D02*
X72000Y128250D01*
X39000Y84422D02*
X40172Y83250D01*
X65500Y128250D02*
X67000Y126750D01*
X74000Y115750D02*
Y126750D01*
X67172Y83578D02*
X68717D01*
X62500Y107750D02*
X65500D01*
X60828Y83250D02*
X63000D01*
X65000Y110750D02*
X69000D01*
X58000Y128250D02*
X58828D01*
X35500Y125750D02*
X37500Y127750D01*
X99000Y84000D02*
X101000Y86000D01*
X97000D02*
X99000Y84000D01*
X76578Y93422D02*
X78000Y92000D01*
X76578Y93422D02*
Y95078D01*
X78000Y96500D01*
Y84500D02*
Y92000D01*
X74000Y83750D02*
X74250D01*
X74922Y83078D02*
X76578D01*
X74250Y83750D02*
X74922Y83078D01*
X76578D02*
X78000Y84500D01*
X74000Y83750D02*
Y88750D01*
X72000Y90750D02*
X74000Y88750D01*
X78000Y126000D02*
X80000Y128000D01*
X305760Y183000D02*
X306413Y183653D01*
X305500Y182740D02*
X305760Y183000D01*
X263760Y72000D02*
Y77356D01*
Y71969D02*
Y72000D01*
X301904Y81500D02*
X335500D01*
X344000Y90000D01*
Y188500D01*
X297031Y72500D02*
Y76565D01*
X301904Y81437D01*
X263760Y77356D02*
X267904Y81500D01*
X301904D01*
Y81437D02*
Y81500D01*
X222835Y71000D02*
X245000D01*
X202000Y144000D02*
X210000Y136000D01*
X238000D01*
X243500Y141500D01*
X245000Y71000D02*
X262791D01*
X263760Y71969D01*
X306413Y183653D02*
Y187413D01*
X311172Y192172D01*
X340328D01*
X344000Y188500D01*
X243500Y141500D02*
Y152000D01*
X250500Y159000D01*
X260870D01*
X198547Y161094D02*
X200953Y163500D01*
X198028Y160575D02*
X198547Y161094D01*
X197453Y160000D02*
X198028Y160575D01*
X200953Y163500D02*
X222760D01*
X222260Y164000D02*
X222760Y163500D01*
X198028Y159425D02*
X200575D01*
X198547Y161094D02*
Y182000D01*
X183500Y181500D02*
X188047D01*
X188547Y182000D01*
X177000Y175000D02*
X183500Y181500D01*
X75533Y177514D02*
Y189486D01*
X140100Y157400D02*
X140500Y157000D01*
X142500D02*
X144500Y159000D01*
X140500Y157000D02*
X142500D01*
X144500Y159000D02*
Y184000D01*
X136500Y192000D02*
X144500Y184000D01*
X102500Y183000D02*
X111500Y192000D01*
X77500Y183000D02*
X102500D01*
X111500Y192000D02*
X136500D01*
X200575Y159425D02*
X202000Y158000D01*
Y144000D02*
Y158000D01*
X129240Y146000D02*
X157147D01*
X159147Y148000D01*
X129240Y146886D02*
X131000Y148646D01*
X129240Y146000D02*
Y146886D01*
X131000Y148646D02*
Y157400D01*
Y182600D01*
X75547Y181047D02*
X77500Y183000D01*
X75547Y177500D02*
Y181047D01*
X45000Y139000D02*
X52000D01*
X62000Y149000D01*
X57122Y175902D02*
X62000Y171024D01*
X57122Y175902D02*
Y179500D01*
X62000Y149000D02*
Y171024D01*
X282130Y174000D02*
X300500D01*
X273437Y168437D02*
Y172084D01*
X275172Y173819D02*
X281949D01*
X273437Y172084D02*
X275172Y173819D01*
X281949D02*
X282130Y174000D01*
X305500Y179000D02*
Y182740D01*
X300500Y174000D02*
X305500Y179000D01*
X75533Y177514D02*
X75547Y177500D01*
X75520Y189500D02*
X75533Y189486D01*
X57122Y179500D02*
X59122Y177500D01*
X75547D01*
D12*
X314000Y41032D02*
Y46000D01*
X313968Y41000D02*
X314000Y41032D01*
Y51032D02*
Y56000D01*
X313968Y51000D02*
X314000Y51032D01*
X313968Y61000D02*
X314000Y61032D01*
Y66500D01*
X36500Y17000D02*
X46500D01*
X26500D02*
X36500D01*
X46500Y12000D02*
Y17000D01*
Y12000D02*
X50500Y8000D01*
X80000D01*
X92500Y17000D02*
X102500D01*
X82500D02*
X92500D01*
X82500Y10500D02*
Y17000D01*
X133000Y7500D02*
X136500Y11000D01*
Y17000D01*
X126661Y17161D02*
Y21339D01*
X117500Y30500D02*
X126661Y21339D01*
X44000Y30500D02*
X117500D01*
X66500Y17000D02*
X72500D01*
X58000Y25500D02*
X66500Y17000D01*
X146500D02*
X156500D01*
X146500D02*
Y23000D01*
X136500Y17000D02*
X146500D01*
X136500D02*
Y23500D01*
X305000Y17000D02*
Y23500D01*
X243000Y29500D02*
X250000Y22500D01*
Y17000D02*
Y22500D01*
X195000Y17500D02*
Y23000D01*
X194500Y17000D02*
X195000Y17500D01*
X296000Y32500D02*
X305000Y23500D01*
X214500Y29500D02*
X243000D01*
X101000Y7500D02*
X133000D01*
X92500Y16000D02*
X101000Y7500D01*
X80000Y8000D02*
X82500Y10500D01*
X143500Y26000D02*
X146500Y23000D01*
X124500Y35500D02*
X136500Y23500D01*
Y46031D01*
X136969Y46500D01*
X45500Y35500D02*
X124500D01*
X156500Y27000D02*
X158500Y25000D01*
X160500Y26000D02*
Y74000D01*
X159500Y25000D02*
X160500Y26000D01*
X158500Y25000D02*
X159500D01*
X156500Y27000D02*
Y74000D01*
X168500Y26000D02*
Y74500D01*
X164500Y27000D02*
X166752Y24748D01*
X167248D01*
X168500Y26000D01*
X169500Y75500D02*
X173500D01*
X168500Y74500D02*
X169500Y75500D01*
X164500Y27000D02*
Y74000D01*
X162749Y75752D02*
X164500Y74000D01*
X160500D02*
X162251Y75752D01*
X162749D01*
X154748D02*
X156500Y74000D01*
X154252Y75752D02*
X154748D01*
X152500Y74000D02*
X154252Y75752D01*
X152500Y26500D02*
Y74000D01*
X150749Y24748D02*
X152500Y26500D01*
X150251Y24748D02*
X150749D01*
X148000Y27000D02*
X150251Y24748D01*
X148000Y27000D02*
Y74500D01*
X146248Y76252D02*
X148000Y74500D01*
X145752Y76252D02*
X146248D01*
X143500Y74000D02*
X145752Y76252D01*
X143500Y26000D02*
Y74000D01*
X266430Y169048D02*
X269452D01*
X266382Y169000D02*
X266430Y169048D01*
X273548Y163952D02*
X282082D01*
X282130Y164000D01*
X56260Y72741D02*
X57500Y71500D01*
X47090Y73981D02*
X48330Y72741D01*
X35299Y73700D02*
X35580Y73981D01*
X48330Y72741D02*
X56260D01*
X35580Y73981D02*
X47090D01*
X23500Y66000D02*
X31200Y73700D01*
X35299D01*
X243000Y169000D02*
X266382D01*
X176000Y144500D02*
X183020D01*
X184000Y58500D02*
X190000Y64500D01*
X194500D01*
X184000Y13500D02*
Y58500D01*
X176000Y5500D02*
X184000Y13500D01*
X11000Y5500D02*
X176000D01*
X6000Y10500D02*
X11000Y5500D01*
X6000Y10500D02*
Y60000D01*
X10500Y64500D01*
X16500D01*
X194500D02*
Y69500D01*
X200000Y75000D01*
X255500D01*
X266000Y85500D01*
X208000Y68500D02*
X236500D01*
X200900Y61400D02*
X208000Y68500D01*
X236500D02*
X239000Y66000D01*
X266000Y85500D02*
X334000D01*
X340000Y91500D01*
Y130500D01*
X333500Y137000D02*
X340000Y130500D01*
X299500Y137000D02*
X333500D01*
X293000Y143500D02*
X299500Y137000D01*
X88000Y191500D02*
Y195500D01*
X26000Y31500D02*
Y65000D01*
X23500Y56500D02*
Y66000D01*
X26000Y65000D02*
X32500Y71500D01*
X41335D01*
X16500Y54500D02*
X21500D01*
X33500Y61500D02*
X41335D01*
X29500Y38500D02*
Y57500D01*
X32500D02*
X34019Y59019D01*
X32500Y55500D02*
X33981Y54019D01*
X29500Y57500D02*
X33500Y61500D01*
X32500Y55500D02*
Y57500D01*
X21500Y54500D02*
X23500Y56500D01*
X34019Y59019D02*
X47519D01*
X16500Y22000D02*
X26000Y31500D01*
X271240Y72000D02*
X276000D01*
X32500Y42000D02*
X44000Y30500D01*
X29500Y38500D02*
X42500Y25500D01*
X58000D01*
X32500Y42000D02*
Y49500D01*
X41335Y39665D02*
Y46500D01*
Y39665D02*
X45500Y35500D01*
X41335Y46500D02*
X42216Y47381D01*
X47881D01*
X48252Y47752D01*
X47052Y54019D02*
X48252Y52819D01*
Y47752D02*
Y52819D01*
X33981Y54019D02*
X47052D01*
X47519Y59019D02*
X49500Y61000D01*
Y64500D01*
X47500Y66500D02*
X49500Y64500D01*
X41335Y66500D02*
X47500D01*
X32500Y49500D02*
X34500Y51500D01*
X41335D01*
X16500Y17000D02*
Y22000D01*
X56000Y61500D02*
Y70000D01*
Y56500D02*
Y61500D01*
X63665D01*
X56000Y52500D02*
Y56500D01*
X41335D02*
X56000D01*
Y52500D02*
X57000Y51500D01*
X56000Y70000D02*
X57500Y71500D01*
X63665D01*
X57000Y51500D02*
X63665D01*
Y66500D02*
X86047D01*
X63665Y56500D02*
X86047D01*
X63665Y46500D02*
X86047D01*
X88500Y71500D02*
X90937Y73937D01*
Y76500D01*
X63665Y71500D02*
X88500D01*
X293000Y143500D02*
Y151953D01*
X136969Y46500D02*
Y56500D01*
Y66500D01*
X91953Y46500D02*
X133031D01*
X91953Y56500D02*
X133031D01*
X91953Y66500D02*
X133031D01*
X200900Y56400D02*
Y61400D01*
X194500Y54500D02*
X199000D01*
X200900Y56400D01*
X204000Y60500D02*
X209500Y66000D01*
X195000Y23000D02*
X204000Y32000D01*
Y60500D01*
X209500Y66000D02*
X222835D01*
X207500Y36500D02*
Y46500D01*
X217000Y56000D01*
X207500Y36500D02*
X214500Y29500D01*
X211248Y37751D02*
X216500Y32500D01*
X296000D01*
X211248Y37751D02*
Y43749D01*
X217000Y56000D02*
X222835D01*
X211248Y43749D02*
X213500Y46000D01*
X222835D01*
X214000Y41000D02*
X222835D01*
X214000Y61000D02*
X222835D01*
X237500Y51000D02*
Y56000D01*
Y47500D02*
Y51000D01*
X222835D02*
X237500D01*
X239000Y46000D02*
X245165D01*
X237500Y47500D02*
X239000Y46000D01*
X237500Y64500D02*
X239000Y66000D01*
X245165D01*
X237500Y56000D02*
Y64500D01*
Y56000D02*
X245165D01*
X269905Y41000D02*
X310032D01*
X270000Y51000D02*
X309531D01*
X269905Y61000D02*
X309531D01*
X245165Y41000D02*
X264000D01*
X245165Y51000D02*
X264094D01*
X245165Y61000D02*
X264000D01*
X300969Y72500D02*
X301000Y72469D01*
Y70000D02*
Y72469D01*
X297000Y66000D02*
X301000Y70000D01*
X245165Y66000D02*
X297000D01*
X293000Y151953D02*
X305547Y164500D01*
X305260Y145000D02*
X305760Y145500D01*
X299000Y145000D02*
X305260D01*
X282130Y159000D02*
X293000D01*
X313240Y145500D02*
Y154760D01*
X311453Y156547D02*
X313240Y154760D01*
X311453Y156547D02*
Y164500D01*
X323500Y152000D02*
Y167500D01*
X307000Y169500D02*
X321500D01*
X323500Y167500D01*
X326000Y149500D02*
X336000D01*
X323500Y152000D02*
X326000Y149500D01*
X305547Y164500D02*
Y168047D01*
X307000Y169500D01*
X300000Y164500D02*
X305547D01*
X295500Y169000D02*
X300000Y164500D01*
X282130Y169000D02*
X295500D01*
X223500Y143000D02*
Y149000D01*
X226500Y152000D01*
X222748Y176251D02*
Y176749D01*
X226500Y152000D02*
Y172500D01*
X222748Y176749D02*
X222760Y176760D01*
X222748Y176251D02*
X226500Y172500D01*
X222760Y176760D02*
Y182500D01*
X230240Y163500D02*
X230740Y164000D01*
X230240Y163500D02*
X230240Y163500D01*
X230740Y164000D02*
X260870D01*
X230240Y163500D02*
Y182500D01*
X223002Y185903D02*
X227099Y190000D01*
X223002Y182742D02*
Y185903D01*
X227099Y190000D02*
X237500D01*
X222760Y182500D02*
X223002Y182742D01*
X240000Y172000D02*
X243000Y169000D01*
X240000Y172000D02*
Y187500D01*
X237500Y190000D02*
X240000Y187500D01*
X260370Y163500D02*
X260870Y164000D01*
X190500Y158953D02*
X191547Y160000D01*
X190500Y144500D02*
Y158953D01*
X82728Y171896D02*
Y176225D01*
X82740Y165000D02*
Y171883D01*
X82728Y171896D02*
X82740Y171883D01*
X81453Y177500D02*
X82728Y176225D01*
X70000Y165000D02*
X75260D01*
X121800Y157500D02*
X121900Y157400D01*
X113500Y157500D02*
X121800D01*
X83000Y189500D02*
X86000D01*
X88000Y191500D01*
X332500Y183000D02*
X336000Y179500D01*
X313240Y183000D02*
X332500D01*
X227437Y143000D02*
X234469D01*
X121760Y146000D02*
X121900Y146140D01*
Y157400D01*
X164000Y126740D02*
Y132000D01*
D20*
X191547Y160000D02*
D03*
X197453D02*
D03*
X91953Y46500D02*
D03*
X86047D02*
D03*
X91953Y56500D02*
D03*
X86047D02*
D03*
X91953Y66500D02*
D03*
X86047D02*
D03*
X81453Y177500D02*
D03*
X75547D02*
D03*
X269905Y61000D02*
D03*
X264000D02*
D03*
X269905Y41000D02*
D03*
X264000D02*
D03*
X270000Y51000D02*
D03*
X264094D02*
D03*
X311453Y164500D02*
D03*
X305547D02*
D03*
D21*
X133031Y46500D02*
D03*
X136969D02*
D03*
X133031Y56500D02*
D03*
X136969D02*
D03*
X310032Y41000D02*
D03*
X313968D02*
D03*
X310032Y51000D02*
D03*
X313968D02*
D03*
X310032Y61000D02*
D03*
X313968D02*
D03*
X297031Y72500D02*
D03*
X300969D02*
D03*
X227437Y143000D02*
D03*
X223500D02*
D03*
X133031Y66500D02*
D03*
X136969D02*
D03*
X87000Y76500D02*
D03*
X90937D02*
D03*
D22*
X83000Y189500D02*
D03*
X75520D02*
D03*
X75260Y165000D02*
D03*
X82740D02*
D03*
X263760Y72000D02*
D03*
X271240D02*
D03*
X230240Y182500D02*
D03*
X222760D02*
D03*
X230240Y163500D02*
D03*
X222760D02*
D03*
X305760Y145500D02*
D03*
X313240D02*
D03*
X313240Y183000D02*
D03*
X305760D02*
D03*
X121760Y146000D02*
D03*
X129240D02*
D03*
X183020Y144500D02*
D03*
X190500D02*
D03*
D23*
X131000Y182600D02*
D03*
D24*
X121900Y157400D02*
D03*
X131000D02*
D03*
X140100D02*
D03*
D25*
X245000Y71000D02*
D03*
X245165Y66000D02*
D03*
Y61000D02*
D03*
Y56000D02*
D03*
Y51000D02*
D03*
Y46000D02*
D03*
Y41000D02*
D03*
X222835D02*
D03*
Y46000D02*
D03*
Y51000D02*
D03*
Y56000D02*
D03*
Y61000D02*
D03*
Y66000D02*
D03*
Y71000D02*
D03*
X41335Y76500D02*
D03*
Y71500D02*
D03*
Y66500D02*
D03*
Y61500D02*
D03*
Y56500D02*
D03*
Y51500D02*
D03*
Y46500D02*
D03*
X63665D02*
D03*
Y51500D02*
D03*
Y56500D02*
D03*
Y61500D02*
D03*
Y66500D02*
D03*
Y71500D02*
D03*
X63500Y76500D02*
D03*
D26*
X282130Y159000D02*
D03*
Y164000D02*
D03*
Y169000D02*
D03*
Y174000D02*
D03*
X260870D02*
D03*
Y169000D02*
D03*
Y164000D02*
D03*
Y159000D02*
D03*
D27*
X164000Y127490D02*
D03*
Y120010D02*
D03*
D40*
X82500Y17000D02*
D03*
X72500D02*
D03*
X102500D02*
D03*
X92500D02*
D03*
X136500D02*
D03*
X126500D02*
D03*
X156500D02*
D03*
X146500D02*
D03*
X26500D02*
D03*
X16500D02*
D03*
X46500D02*
D03*
X36500D02*
D03*
X35000Y139000D02*
D03*
X45000D02*
D03*
X15000D02*
D03*
X25000D02*
D03*
X160500Y168000D02*
D03*
Y178000D02*
D03*
Y148000D02*
D03*
Y158000D02*
D03*
X315000Y17000D02*
D03*
X305000D02*
D03*
X335000D02*
D03*
X325000D02*
D03*
X260000D02*
D03*
X250000D02*
D03*
X280000D02*
D03*
X270000D02*
D03*
X204500D02*
D03*
X194500D02*
D03*
X224500D02*
D03*
X214500D02*
D03*
X336000Y169500D02*
D03*
Y179500D02*
D03*
Y149500D02*
D03*
Y159500D02*
D03*
D41*
X16500Y54500D02*
D03*
Y64500D02*
D03*
X188547Y182000D02*
D03*
X198547D02*
D03*
X194500Y54500D02*
D03*
Y64500D02*
D03*
D42*
X57122Y179500D02*
D03*
X33500D02*
D03*
D43*
X47280Y161193D02*
D03*
D44*
X314000Y46000D02*
D03*
Y56000D02*
D03*
Y66500D02*
D03*
X173500Y75500D02*
D03*
X176000Y144500D02*
D03*
X88000Y195500D02*
D03*
X276000Y72000D02*
D03*
X299000Y145000D02*
D03*
X293000Y159000D02*
D03*
X70000Y165000D02*
D03*
X113500Y157500D02*
D03*
X214000Y41000D02*
D03*
Y61000D02*
D03*
X234469Y143000D02*
D03*
X164000Y132000D02*
D03*
D45*
X269452Y169048D02*
D03*
X273548Y163952D02*
D03*
M02*
