M48
;Layer_Color=9474304
;FILE_FORMAT=2:5
INCH,LZ
;TYPE=PLATED
T1F00S00C0.01300
T2F00S00C0.02800
T4F00S00C0.04000
T5F00S00C0.04016
%
T01
X00695Y00825
X00745Y00775
X00515Y00765
Y0065
T02
X0032Y0014
X021Y0016
X02385
X0266
X0294Y0017
X01235Y00875
X00805Y016
X014774Y01795
X00475Y00875
T04
X0108Y0028
Y0038
Y0048
X0326Y0049
Y0039
Y0029
Y0059
X0108Y0058
X0045Y0131
X0035
X0025
X0015
T05
X0148726Y0072217
X0158726
X01025Y01215
Y01315
M30
