G04*
G04 #@! TF.GenerationSoftware,Altium Limited,Altium Designer,22.0.2 (36)*
G04*
G04 Layer_Color=8421504*
%FSLAX25Y25*%
%MOIN*%
G70*
G04*
G04 #@! TF.SameCoordinates,7413C347-F83B-4BEA-81E0-1AD2B0EE7C59*
G04*
G04*
G04 #@! TF.FilePolarity,Positive*
G04*
G01*
G75*
%ADD19R,0.03937X0.05709*%
%ADD20R,0.05709X0.03937*%
%ADD21R,0.07100X0.04400*%
%ADD22R,0.03150X0.03150*%
%ADD23R,0.04400X0.07100*%
%ADD24R,0.13386X0.02362*%
D19*
X137980Y179500D02*
D03*
X130500D02*
D03*
D20*
X32000Y76000D02*
D03*
Y83480D02*
D03*
Y49780D02*
D03*
Y57260D02*
D03*
X238550Y31040D02*
D03*
Y23560D02*
D03*
D21*
X32000Y22200D02*
D03*
Y34000D02*
D03*
X80500Y179400D02*
D03*
Y167600D02*
D03*
X294000Y71900D02*
D03*
Y60100D02*
D03*
X266000Y71900D02*
D03*
Y60100D02*
D03*
X238000Y71900D02*
D03*
Y60100D02*
D03*
X210000Y71900D02*
D03*
Y60100D02*
D03*
X294000Y24100D02*
D03*
Y35900D02*
D03*
X266000Y24100D02*
D03*
Y35900D02*
D03*
X210000Y24100D02*
D03*
Y35900D02*
D03*
D22*
X102600Y179500D02*
D03*
X108505D02*
D03*
D23*
X102000Y87500D02*
D03*
X113800D02*
D03*
D24*
X82630D02*
D03*
Y82500D02*
D03*
Y77500D02*
D03*
Y72500D02*
D03*
X61370D02*
D03*
Y77500D02*
D03*
Y82500D02*
D03*
Y87500D02*
D03*
M02*
