G04*
G04 #@! TF.GenerationSoftware,Altium Limited,Altium Designer,22.0.2 (36)*
G04*
G04 Layer_Color=16711935*
%FSLAX25Y25*%
%MOIN*%
G70*
G04*
G04 #@! TF.SameCoordinates,7413C347-F83B-4BEA-81E0-1AD2B0EE7C59*
G04*
G04*
G04 #@! TF.FilePolarity,Negative*
G04*
G01*
G75*
%ADD25C,0.00000*%
%ADD30C,0.07800*%
%ADD31O,0.08674X0.15761*%
%ADD32O,0.13792X0.07887*%
%ADD33C,0.07178*%
%ADD34C,0.03300*%
%ADD35C,0.03600*%
D25*
X152116Y72217D02*
G03*
X152116Y72217I-3390J0D01*
G01*
X162116D02*
G03*
X162116Y72217I-3390J0D01*
G01*
X105890Y131500D02*
G03*
X105890Y131500I-3390J0D01*
G01*
Y121500D02*
G03*
X105890Y121500I-3390J0D01*
G01*
D30*
X326000Y39000D02*
D03*
Y29000D02*
D03*
Y59000D02*
D03*
Y49000D02*
D03*
X35000Y131000D02*
D03*
X45000D02*
D03*
X15000D02*
D03*
X25000D02*
D03*
X108000Y48000D02*
D03*
Y58000D02*
D03*
Y28000D02*
D03*
Y38000D02*
D03*
D31*
X55622Y180000D02*
D03*
X32000D02*
D03*
D32*
X45779Y161693D02*
D03*
D33*
X148726Y72217D02*
D03*
X158726D02*
D03*
X102500Y131500D02*
D03*
Y121500D02*
D03*
D34*
X69500Y82500D02*
D03*
X74500Y77500D02*
D03*
X51500Y76500D02*
D03*
Y65000D02*
D03*
D35*
X47500Y87500D02*
D03*
X147740Y179500D02*
D03*
X80500Y160000D02*
D03*
X32000Y14000D02*
D03*
X294000Y17000D02*
D03*
X266000Y16000D02*
D03*
X238500D02*
D03*
X210000D02*
D03*
X123500Y87500D02*
D03*
M02*
